<svg version="1.1" xmlns="http://www.w3.org/2000/svg" xmlns:xlink="http://www.w3.org/1999/xlink">
  <defs>
    <symbol id="facebook" viewBox="0 0 24 24">
      <title>facebook</title>
      <path d="M18 7c0.6 0 1-0.4 1-1v-4c0-0.6-0.4-1-1-1h-3c-3.3 0-6 2.7-6 6v2h-2c-0.6 0-1 0.4-1 1v4c0 0.6 0.4 1 1 1h2v7c0 0.6 0.4 1 1 1h4c0.6 0 1-0.4 1-1v-7h2c0.5 0 0.9-0.3 1-0.8l1-4c0.1-0.3 0-0.6-0.2-0.9s-0.5-0.3-0.8-0.3h-3v-2h3zM14 11h2.7l-0.5 2h-2.2c-0.6 0-1 0.4-1 1v7h-2v-7c0-0.6-0.4-1-1-1h-2v-2h2c0.6 0 1-0.4 1-1v-3c0-2.2 1.8-4 4-4h2v2h-2c-1.1 0-2 0.9-2 2v3c0 0.6 0.4 1 1 1z"></path>
    </symbol>
    <symbol id="github" viewBox="0 0 24 24">
      <title>github</title>
      <path d="M22.5 8.5c0-1.5-0.5-2.8-1.4-4 0.3-1.3 0.2-2.7-0.3-3.9-0.1-0.3-0.3-0.5-0.6-0.6-0.4-0.1-1.7-0.3-4.4 1.4-2.2-0.5-4.5-0.5-6.6 0-2.7-1.7-4-1.5-4.4-1.4-0.3 0.1-0.5 0.3-0.6 0.6-0.6 1.3-0.7 2.6-0.3 3.9-0.9 1.2-1.4 2.6-1.4 4 0 5.4 3 7.1 5.8 7.7-0.2 0.7-0.3 1.3-0.3 1.9v0.1c-2.1 0.4-2.8-0.4-3.6-1.5-0.5-0.7-1.1-1.5-2.2-1.7-0.5-0.1-1.1 0.2-1.2 0.7s0.2 1.1 0.7 1.2c0.3 0.1 0.7 0.5 1.1 1 0.9 1.2 2.2 2.8 5.2 2.4v1.7c0 0.6 0.4 1 1 1s1-0.4 1-1v-2.9c0 0 0-0.1 0-0.1v-0.9c0-0.7 0.2-1.3 0.7-1.8 0.3-0.3 0.4-0.7 0.2-1-0.1-0.4-0.4-0.6-0.8-0.7-2.9-0.4-5.6-1.3-5.6-6 0-1.2 0.4-2.2 1.2-3.1 0.3-0.3 0.3-0.7 0.2-1-0.3-0.9-0.3-1.7-0.1-2.5 0.5 0.1 1.4 0.4 2.6 1.3 0.3 0.2 0.6 0.2 0.9 0.1 2.1-0.6 4.4-0.6 6.5 0 0.3 0.1 0.6 0 0.8-0.1 1.3-0.9 2.2-1.2 2.6-1.3 0.2 0.8 0.2 1.6-0.1 2.4-0.1 0.4-0.1 0.8 0.2 1 0.8 0.8 1.2 1.9 1.2 3.1 0 4.7-2.7 5.7-5.6 6-0.4 0-0.7 0.3-0.8 0.7s0 0.8 0.2 1c0.5 0.5 0.7 1.2 0.7 1.9v3.9c0 0.6 0.4 1 1 1s1-0.4 1-1v-3.8c0.1-0.7 0-1.3-0.3-1.9 2.4-0.5 5.8-2.1 5.8-7.8z"></path>
    </symbol>
    <symbol id="instagram" viewBox="0 0 24 24">
      <title>instagram</title>
      <path d="M17 1h-10c-3.3 0-6 2.7-6 6v10c0 3.3 2.7 6 6 6h10c3.3 0 6-2.7 6-6v-10c0-3.3-2.7-6-6-6zM21 17c0 2.2-1.8 4-4 4h-10c-2.2 0-4-1.8-4-4v-10c0-2.2 1.8-4 4-4h10c2.2 0 4 1.8 4 4v10z"></path>
      <path d="M12.8 7c-0.5-0.1-1-0.1-1.5 0-2.7 0.4-4.6 3-4.2 5.7 0.2 1.3 0.9 2.5 2 3.3 0.9 0.6 1.9 1 3 1 0.2 0 0.5 0 0.7-0.1 1.3-0.2 2.5-0.9 3.3-2s1.1-2.4 0.9-3.7c-0.3-2.2-2-3.9-4.2-4.2zM14.5 13.7c-0.5 0.6-1.2 1.1-2 1.2-1.6 0.2-3.2-0.9-3.4-2.5-0.3-1.6 0.9-3.2 2.5-3.4 0.1 0 0.3 0 0.4 0s0.3 0 0.4 0c1.3 0.2 2.3 1.2 2.5 2.5 0.2 0.8 0 1.6-0.4 2.2z"></path>
      <path d="M16.8 5.8c-0.2 0.2-0.3 0.4-0.3 0.7s0.1 0.5 0.3 0.7c0.2 0.2 0.5 0.3 0.7 0.3 0.3 0 0.5-0.1 0.7-0.3s0.3-0.5 0.3-0.7c0-0.3-0.1-0.5-0.3-0.7-0.4-0.4-1-0.4-1.4 0z"></path>
    </symbol>
    <symbol id="link" viewBox="0 0 24 24">
      <title>link</title>
      <path d="M21.1 2.8c-2.3-2.3-6-2.3-8.3 0l-1.8 1.7c-0.4 0.4-0.4 1 0 1.4s1 0.4 1.4 0l1.7-1.7c1.6-1.5 4-1.5 5.6 0s1.6 4.1 0.1 5.6l-3 3c-0.1 0.1-0.3 0.3-0.4 0.4-1.8 1.3-4.3 1-5.6-0.8-0.3-0.4-1-0.5-1.4-0.2s-0.5 1-0.2 1.4c1.2 1.6 3 2.4 4.8 2.4 1.2 0 2.5-0.4 3.6-1.2 0.2-0.2 0.4-0.4 0.7-0.6l3-3c2.3-2.3 2.2-6.2-0.2-8.4z"></path>
      <path d="M11.5 18.1l-1.7 1.7c-1.6 1.5-4 1.5-5.6 0s-1.6-4.1-0.1-5.6l3-3c0.1-0.1 0.3-0.3 0.4-0.4 0.9-0.6 1.9-0.9 3-0.8 1.1 0.2 2 0.7 2.6 1.6 0.3 0.4 1 0.5 1.4 0.2s0.5-1 0.2-1.4c-1-1.3-2.4-2.1-3.9-2.3-1.5-0.3-3.1 0.1-4.4 1.1-0.2 0.2-0.4 0.4-0.6 0.6l-3 3c-2.3 2.4-2.2 6.2 0.1 8.5 1.2 1.1 2.7 1.7 4.2 1.7s3-0.6 4.2-1.7l1.7-1.7c0.4-0.4 0.4-1 0-1.4s-1.1-0.5-1.5-0.1z"></path>
    </symbol>
    <symbol id="mail" viewBox="0 0 24 24">
      <title>mail</title>
      <path d="M20 3h-16c-1.7 0-3 1.3-3 3v12c0 1.7 1.3 3 3 3h16c1.7 0 3-1.3 3-3v-12c0-1.7-1.3-3-3-3zM4 5h16c0.4 0 0.7 0.2 0.9 0.6l-8.9 6.2-8.9-6.2c0.2-0.4 0.5-0.6 0.9-0.6zM20 19h-16c-0.6 0-1-0.4-1-1v-10.1l8.4 5.9c0.2 0.1 0.4 0.2 0.6 0.2s0.4-0.1 0.6-0.2l8.4-5.9v10.1c0 0.6-0.4 1-1 1z"></path>
    </symbol>
    <symbol id="map-pin" viewBox="0 0 24 24">
      <title>map-pin</title>
      <path d="M12 0c-5.5 0-10 4.5-10 10 0 7.4 9.1 13.6 9.4 13.8 0.2 0.1 0.4 0.2 0.6 0.2s0.4-0.1 0.6-0.2c0.3-0.2 9.4-6.4 9.4-13.8 0-5.5-4.5-10-10-10zM12 21.8c-1.9-1.4-8-6.4-8-11.8 0-4.4 3.6-8 8-8s8 3.6 8 8c0 5.4-6.1 10.4-8 11.8z"></path>
      <path d="M12 6c-2.2 0-4 1.8-4 4s1.8 4 4 4c2.2 0 4-1.8 4-4s-1.8-4-4-4zM12 12c-1.1 0-2-0.9-2-2s0.9-2 2-2c1.1 0 2 0.9 2 2s-0.9 2-2 2z"></path>
    </symbol>
    <symbol id="phone" viewBox="0 0 24 24">
      <title>phone</title>
      <path d="M20.4 13.9c-0.9-0.1-1.8-0.3-2.6-0.6-1.1-0.4-2.3-0.1-3.2 0.7l-0.7 0.7c-1.8-1.2-3.4-2.7-4.6-4.6l0.7-0.7c0.8-0.8 1.1-2.1 0.7-3.2-0.3-0.8-0.5-1.7-0.6-2.6-0.2-1.5-1.5-2.6-3-2.6 0 0 0 0 0 0h-3c-0.1 0-0.2 0-0.3 0-0.8 0.1-1.5 0.5-2 1.1s-0.7 1.4-0.7 2.2c0.3 3.2 1.5 6.4 3.2 9.1 1.6 2.5 3.8 4.7 6.3 6.3 2.7 1.8 5.9 2.9 9.1 3.2 0.1 0 0.2 0 0.3 0 0 0 0 0 0 0 0.8 0 1.6-0.3 2.1-0.9s0.9-1.3 0.9-2.1v-3c0-1.5-1.1-2.8-2.6-3zM21 16.9v3c0 0.3-0.1 0.5-0.3 0.7s-0.4 0.3-0.8 0.3c-2.9-0.3-5.7-1.3-8.2-2.9-2.3-1.4-4.2-3.4-5.7-5.7-1.6-2.5-2.6-5.3-2.9-8.2 0-0.3 0.1-0.5 0.2-0.7 0.2-0.2 0.5-0.4 0.8-0.4h3c0 0 0 0 0 0 0.5 0 0.9 0.4 1 0.9 0.1 1 0.4 2.1 0.8 3 0.1 0.4 0 0.8-0.2 1.1l-1.3 1.2c-0.3 0.3-0.4 0.8-0.2 1.2 1.5 2.7 3.7 4.9 6.4 6.4 0.4 0.2 0.9 0.2 1.2-0.2l1.3-1.3c0.3-0.3 0.7-0.4 1.1-0.2 1 0.4 2 0.6 3 0.8 0.4 0.1 0.8 0.5 0.8 1 0 0 0 0 0 0z"></path>
    </symbol>
    <symbol id="twitter" viewBox="0 0 24 24">
      <title>twitter</title>
      <path d="M23.6 2.2c-0.3-0.2-0.8-0.2-1.1 0-0.7 0.5-1.5 0.9-2.3 1.2-2-1.8-5.1-1.9-7.2-0.1-1.3 1.1-2 2.6-2 4.2-2.9-0.2-5.5-1.7-7.2-4.1-0.2-0.3-0.5-0.4-0.9-0.4s-0.7 0.3-0.8 0.6c-0.1 0.1-1.1 2.5-1 5.4 0.1 2.5 1.1 5.7 4.8 8-1.5 0.7-3.2 1-4.9 1-0.4 0-0.9 0.3-1 0.7s0.1 0.9 0.5 1.1c2.5 1.4 5.2 2.1 7.7 2.1s4.9-0.6 7.1-1.9c4.3-2.4 6.7-7 6.7-12.5 0-0.2 0-0.3 0-0.5 1-1.1 1.7-2.4 2-3.8 0.1-0.4-0.1-0.8-0.4-1zM20.2 6c-0.2 0.2-0.3 0.6-0.3 0.9 0.1 0.2 0.1 0.4 0.1 0.6 0 4.8-2.1 8.7-5.7 10.8-2.8 1.6-6.1 2-9.4 1.2 1.3-0.4 2.5-0.9 3.6-1.7 0.4-0.2 0.5-0.5 0.5-0.9s-0.3-0.7-0.6-0.8c-5.8-2.6-5.6-7.5-5-10 2.2 2.2 5.3 3.5 8.6 3.4 0.5 0 1-0.5 1-1v-1c0-1 0.4-2 1.2-2.7 1.4-1.3 3.7-1.1 4.9 0.3 0.3 0.3 0.7 0.4 1 0.3 0.2-0.1 0.5-0.1 0.7-0.2-0.2 0.3-0.4 0.5-0.6 0.8z"></path>
    </symbol>
    <symbol id="youtube" viewBox="0 0 32 32">
      <title>youtube</title>
      <path d="M31.681 9.6c0 0-0.313-2.206-1.275-3.175-1.219-1.275-2.581-1.281-3.206-1.356-4.475-0.325-11.194-0.325-11.194-0.325h-0.012c0 0-6.719 0-11.194 0.325-0.625 0.075-1.987 0.081-3.206 1.356-0.963 0.969-1.269 3.175-1.269 3.175s-0.319 2.588-0.319 5.181v2.425c0 2.587 0.319 5.181 0.319 5.181s0.313 2.206 1.269 3.175c1.219 1.275 2.819 1.231 3.531 1.369 2.563 0.244 10.881 0.319 10.881 0.319s6.725-0.012 11.2-0.331c0.625-0.075 1.988-0.081 3.206-1.356 0.962-0.969 1.275-3.175 1.275-3.175s0.319-2.587 0.319-5.181v-2.425c-0.006-2.588-0.325-5.181-0.325-5.181zM12.694 20.15v-8.994l8.644 4.513-8.644 4.481z"></path>
    </symbol>
    <symbol id="linkedin" viewBox="0 0 32 32">
      <title>linkedin</title>
      <path d="M12 12h5.535v2.837h0.079c0.77-1.381 2.655-2.837 5.464-2.837 5.842 0 6.922 3.637 6.922 8.367v9.633h-5.769v-8.54c0-2.037-0.042-4.657-3.001-4.657-3.005 0-3.463 2.218-3.463 4.509v8.688h-5.767v-18z"></path>
      <path d="M2 12h6v18h-6v-18z"></path>
      <path d="M8 7c0 1.657-1.343 3-3 3s-3-1.343-3-3c0-1.657 1.343-3 3-3s3 1.343 3 3z"></path>
    </symbol>
  </defs>
</svg>
