<svg xmlns="http://www.w3.org/2000/svg" width="474.2" height="458">
  <defs>
    <clipPath id="a">
      <path d="M157.4 293l8-11.8 27.4 11.6c-5.8 1.6-12 2.5-18 2.5-5.8 0-11.7-.8-17.4-2.4m30.3-6l18.8-19 11.5 11c-6 5-14 9-22 12l-8-5zM122 269l9.3-22 14.6 36.2-3 3.3c-8-4.5-16-10.5-21-17.5m45 8l20-30 14 20-18 17-17-6.5zm25-38l5-7.5 42 15.4-3 6c-4 8-9 16-16 22l-29-37zm-80-38l14 36-11 24c-11-18-12-40.3-4-59.7m30 5l35 8-20 29.8-15-37zm72 4l12-32.8h42l-17 46-36.5-13zm-57-7.5l22-33 38 16.2-8 22.3-15-5.3c-4-1.5-8.8 0-11 3.6l-3.7 5-21.8-9zm-18-3.8l-5-13.7-10-6 10-17 35 11.3-15 25.4h-14zm35-41.7l27.5-30.8 28 16.5-15 31-40-16zm-36-2.4l22-38 22.4 21-25 22-19.6-5zm106.3 0l6-38 31.4 9-8 28h-28zm-81-44l12-21 16 25-6 15-21.5-19zm51-6l3-25 28 17-15 24-15.6-16zm52-8l7-20.7 18 13-1.4 15-22.4-7z"/>
    </clipPath>
    <linearGradient id="b" x2="1" gradientUnits="userSpaceOnUse" gradientTransform="matrix(214.6 0 0 -214.6 104.2 180.1)">
      <stop offset="0" stop-color="#c5cec9"/>
      <stop offset=".5" stop-color="#9aaea4"/>
      <stop offset=".5" stop-color="#9aaea4"/>
      <stop offset=".9" stop-color="#7f9c90"/>
      <stop offset="1" stop-color="#7f9c90"/>
    </linearGradient>
    <clipPath id="c">
      <path d="M0 366.4h379.4V0H0v366.4z"/>
    </clipPath>
  </defs>
  <g clip-path="url(#a)" transform="matrix(1.3 0 0 -1.3 0 458)">
    <path fill="url(#b)" d="M157.4 293l8-11.8 27.4 11.6c-5.8 1.6-12 2.5-18 2.5-5.8 0-11.7-.8-17.4-2.4m30.3-6l18.8-19 11.5 11c-6 5-14 9-22 12l-8-5zM122 269l9.3-22 14.6 36.2-3 3.3c-8-4.5-16-10.5-21-17.5m45 8l20-30 14 20-18 17-17-6.5zm25-38l5-7.5 42 15.4-3 6c-4 8-9 16-16 22l-29-37zm-80-38l14 36-11 24c-11-18-12-40.3-4-59.7m30 5l35 8-20 29.8-15-37zm72 4l12-32.8h42l-17 46-36.5-13zm-57-7.5l22-33 38 16.2-8 22.3-15-5.3c-4-1.5-8.8 0-11 3.6l-3.7 5-21.8-9zm-18-3.8l-5-13.7-10-6 10-17 35 11.3-15 25.4h-14zm35-41.7l27.5-30.8 28 16.5-15 31-40-16zm-36-2.4l22-38 22.4 21-25 22-19.6-5zm106.3 0l6-38 31.4 9-8 28h-28zm-81-44l12-21 16 25-6 15-21.5-19zm51-6l3-25 28 17-15 24-15.6-16zm52-8l7-20.7 18 13-1.4 15-22.4-7z"/>
  </g>
  <g clip-path="url(#c)" transform="matrix(1.3 0 0 -1.3 0 458)">
    <path fill="#323e48" d="M172 47.5c1-1.8 3.2-2.4 5-1.4.6 1 1 1 1.3 2l23 40c1 2 .3 4-1.5 5l-9.8 5c-1.4 1-4 1-5-1l-6.4-12c-.3 0-.7-1-1.3-1-1.7-1-4 0-5 1.8L111 191c-1.5 2.6-3 5.5-4 8.4-16 38 1.8 81.5 39.7 97.4 38 15.8 81.4-2 97.3-40 .8-1.7 2.8-2.6 4.7-2l10.5 4c1.8.6 2.8 2.7 2 4.6v.2c-19.5 47.4-73.8 70-121.3 50.5s-70-74-51-121c1-3 3-7 5-11l78-134z"/>
    <path fill="#669f64" d="M293 228c.7-.6 1-1.8.5-2.7l-12.2-19.7c-.3-.3-.6-.6-1-.7-1-1-2 0-2.4 1l-15 40c-1 1-2 1-3 1l-64-24c-1-1-2 0-3 0l-37 57c-1 .3-2 1-3 0-1 0-1-.5-1-1l-33-82v-1l4.6-8c.5-1 1.7-1.3 2.6-.8.2.2.5.5.7 1l27.4 68c0 .5.4.8.7 1 1 .6 2 .3 3-.5l31-46c.3-1 1-1 2-1l62 23c1 0 2-.2 2.4-1l18.7-51.3c.3-1 1.4-1.5 2.4-1 .4 0 .7.3 1 .6l24.2 40c.3 1 1.4 1 2.3 1h1c1-.3 2 0 2.3.8l.2.8 2 18c0 1-.7 2-1.7 2-.7 0-1 0-1.4-.2L292 232c-1-.6-1-1.7-.4-2.6 0-.5.4-.7.7-.8"/>
  </g>
</svg>
