<?xml version="1.0" encoding="UTF-8" standalone="no"?>
<!-- Created with Inkscape (http://www.inkscape.org/) -->

<svg
   xmlns:dc="http://purl.org/dc/elements/1.1/"
   xmlns:cc="http://creativecommons.org/ns#"
   xmlns:rdf="http://www.w3.org/1999/02/22-rdf-syntax-ns#"
   xmlns:svg="http://www.w3.org/2000/svg"
   xmlns="http://www.w3.org/2000/svg"
   xmlns:sodipodi="http://sodipodi.sourceforge.net/DTD/sodipodi-0.dtd"
   xmlns:inkscape="http://www.inkscape.org/namespaces/inkscape"
   width="116.41666mm"
   height="134.07654mm"
   viewBox="0 0 116.41666 134.07654"
   version="1.1"
   id="svg8"
   inkscape:version="0.92.1 r15371"
   sodipodi:docname="cartometrics.svg">
  <defs
     id="defs2">
    <clipPath
       id="clipPath4498"
       clipPathUnits="userSpaceOnUse">
      <rect
         y="124.64286"
         x="-132.29167"
         height="123.97619"
         width="103.56547"
         id="rect4500"
         style="opacity:1;vector-effect:none;fill:none;fill-opacity:1;fill-rule:evenodd;stroke:#ff0000;stroke-width:0.09999999;stroke-linecap:butt;stroke-linejoin:miter;stroke-miterlimit:4;stroke-dasharray:none;stroke-dashoffset:0;stroke-opacity:1" />
    </clipPath>
    <linearGradient
       x1="0"
       y1="0"
       x2="1"
       y2="0"
       gradientUnits="userSpaceOnUse"
       gradientTransform="matrix(214.59473,0,0,-214.59473,1119.9579,-163.02331)"
       spreadMethod="pad"
       id="linearGradient4591">
      <stop
         style="stop-opacity:1;stop-color:#c5cec9"
         offset="0"
         id="stop4581" />
      <stop
         style="stop-opacity:1;stop-color:#9aaea4"
         offset="0.47608619"
         id="stop4583" />
      <stop
         style="stop-opacity:1;stop-color:#9aaea4"
         offset="0.5"
         id="stop4585" />
      <stop
         style="stop-opacity:1;stop-color:#7f9c90"
         offset="0.94538668"
         id="stop4587" />
      <stop
         style="stop-opacity:1;stop-color:#7f9c90"
         offset="1"
         id="stop4589" />
    </linearGradient>
    <clipPath
       clipPathUnits="userSpaceOnUse"
       id="clipPath4601">
      <path
         d="M 0,366.396 H 379.383 V 0 H 0 Z"
         id="path4599"
         inkscape:connector-curvature="0" />
    </clipPath>
    <clipPath
       id="clipPath4642"
       clipPathUnits="userSpaceOnUse">
      <rect
         transform="scale(1,-1)"
         y="-377.82544"
         x="70.353012"
         height="307.50003"
         width="250.71428"
         id="rect4644"
         style="opacity:1;vector-effect:none;fill:none;fill-opacity:1;fill-rule:evenodd;stroke:#ff0000;stroke-width:0.09999999;stroke-linecap:butt;stroke-linejoin:miter;stroke-miterlimit:4;stroke-dasharray:none;stroke-dashoffset:0;stroke-opacity:1" />
    </clipPath>
  </defs>
  <sodipodi:namedview
     id="base"
     pagecolor="#000000"
     bordercolor="#666666"
     borderopacity="1.0"
     inkscape:pageopacity="0"
     inkscape:pageshadow="2"
     inkscape:zoom="0.061871843"
     inkscape:cx="1899.9936"
     inkscape:cy="-1242.2681"
     inkscape:document-units="mm"
     inkscape:current-layer="layer1"
     showgrid="false"
     fit-margin-top="0"
     fit-margin-left="0"
     fit-margin-right="0"
     fit-margin-bottom="0"
     inkscape:window-width="1366"
     inkscape:window-height="705"
     inkscape:window-x="-8"
     inkscape:window-y="525"
     inkscape:window-maximized="1" />
  <metadata
     id="metadata5">
    <rdf:RDF>
      <cc:Work
         rdf:about="">
        <dc:format>image/svg+xml</dc:format>
        <dc:type
           rdf:resource="http://purl.org/dc/dcmitype/StillImage" />
        <dc:title></dc:title>
      </cc:Work>
    </rdf:RDF>
  </metadata>
  <g
     inkscape:label="Layer 1"
     inkscape:groupmode="layer"
     id="layer1"
     transform="translate(522.73937,1169.1891)">
    <g
       id="g4549"
       transform="matrix(0.26458333,0,0,0.26458333,65.956845,149.77827)"
       style="fill:#ffffff">
      <g
         id="g4491"
         style="fill:#ffffff">
        <g
           id="g4489"
           style="fill:#ffffff">
          <path
             id="path4485"
             d="m 20.379,10.252 c 0,5.315 -3.924,9.62 -10.381,9.62 C 3.924,19.872 0,15.568 0,10.252 0,4.809 4.051,0.631 10.252,0.631 c 6.203,0 10.002,4.178 10.127,9.621 z M 0.506,89.368 v -61.9 H 19.748 V 89.369 H 0.506 Z"
             style="fill:#ffffff"
             inkscape:connector-curvature="0" />
          <path
             id="path4487"
             d="m 31.262,47.215 c 0,-7.721 -0.252,-14.176 -0.504,-19.747 h 16.707 l 0.889,8.608 h 0.379 C 51.264,32.023 57.467,26.074 67.848,26.074 80.506,26.074 90,34.556 90,52.784 V 89.369 H 70.758 V 55.063 c 0,-7.976 -2.785,-13.417 -9.748,-13.417 -5.316,0 -8.479,3.67 -9.871,7.215 -0.508,1.265 -0.635,3.038 -0.635,4.811 V 89.369 H 31.262 Z"
             style="fill:#ffffff"
             inkscape:connector-curvature="0" />
        </g>
      </g>
      <g
         id="g4493"
         style="fill:#ffffff" />
      <g
         id="g4495"
         style="fill:#ffffff" />
      <g
         id="g4497"
         style="fill:#ffffff" />
      <g
         id="g4499"
         style="fill:#ffffff" />
      <g
         id="g4501"
         style="fill:#ffffff" />
      <g
         id="g4503"
         style="fill:#ffffff" />
      <g
         id="g4505"
         style="fill:#ffffff" />
      <g
         id="g4507"
         style="fill:#ffffff" />
      <g
         id="g4509"
         style="fill:#ffffff" />
      <g
         id="g4511"
         style="fill:#ffffff" />
      <g
         id="g4513"
         style="fill:#ffffff" />
      <g
         id="g4515"
         style="fill:#ffffff" />
      <g
         id="g4517"
         style="fill:#ffffff" />
      <g
         id="g4519"
         style="fill:#ffffff" />
      <g
         id="g4521"
         style="fill:#ffffff" />
    </g>
    <g
       transform="matrix(0.46433997,0,0,-0.46433997,-555.40709,-1002.4577)"
       inkscape:label="Logotipo_completo"
       id="g4567"
       clip-path="url(#clipPath4642)"
       style="fill:#ffffff;stroke-width:0.75974023">
      <g
         id="g4569"
         style="fill:#ffffff;stroke-width:0.75974023">
        <g
           id="g4571"
           style="fill:#ffffff;stroke-width:0.75974023">
          <g
             id="g4577"
             style="fill:#ffffff;stroke-width:0.75974023">
            <g
               id="g4579"
               style="fill:#ffffff;stroke-width:0.75974023">
              <path
                 inkscape:connector-curvature="0"
                 id="path4593"
                 style="fill:#ffffff;stroke:none;stroke-width:0.75974023"
                 d="m 157.402,331.246 7.863,-11.752 27.54,11.66 c -5.847,1.611 -11.859,2.418 -17.871,2.418 v 0 c -5.894,0 -11.79,-0.775 -17.532,-2.326 m 30.322,-6.009 18.79,-18.897 11.616,11.542 c -6.553,5.483 -14.087,9.672 -22.212,12.337 v 0 z M 122.144,308 l 9.175,-22.09 14.542,36.296 -2.667,3.408 C 135.04,321.254 127.873,315.256 122.144,308 m 45.291,8.248 20.289,-30.338 14.405,19.484 -17.597,17.291 z m 25.37,-37.935 5.084,-7.597 41.774,15.194 -2.683,6.408 c -3.528,8.416 -8.735,16.029 -15.301,22.374 v 0 z m -79.821,-38.161 14.298,35.678 -10.596,24.125 c -10.544,-18.251 -11.916,-40.39 -3.702,-59.803 m 30.21,5.068 34.98,7.927 -19.89,29.736 z m 72.055,3.985 11.958,-32.846 h 41.402 l -16.805,46.146 z m -56.965,-7.569 21.72,-33.159 38.126,16.579 -8.103,22.252 -15.59,-5.672 c -4.044,-1.47 -8.57,0.009 -10.961,3.584 v 0 l -3.472,5.191 z m -17.986,-3.64 -5.536,-13.818 -9.855,-5.689 9.855,-17.059 34.974,11.239 -15.203,25.327 z m 34.641,-41.726 27.885,-30.691 27.965,16.641 -15.54,30.449 z m -35.889,-2.263 22.05,-38.174 22.376,21.209 -25.192,21.82 z m 106.573,0 6.181,-38.104 31.252,9.676 -8.81,28.428 z m -81.394,-43.592 12.267,-21.236 15.631,25.547 -6.19,14.769 z m 51.02,-5.826 2.455,-25.24 27.919,16.869 -14.834,24.523 z m 52.181,-7.664 6.542,-20.23 17.272,12.228 -1.454,14.923 z" />
            </g>
          </g>
        </g>
      </g>
      <g
         id="g4595"
         style="fill:#ffffff;stroke-width:0.75974023">
        <g
           clip-path="url(#clipPath4601)"
           id="g4597"
           style="fill:#ffffff;stroke-width:0.75974023">
          <g
             transform="translate(171.9106,85.8203)"
             id="g4603"
             style="fill:#ffffff;stroke-width:0.75974023">
            <path
               inkscape:connector-curvature="0"
               id="path4605"
               style="fill:#ffffff;fill-opacity:1;fill-rule:nonzero;stroke:none;stroke-width:0.75974023"
               d="M 0,0 C 1.025,-1.78 3.299,-2.388 5.077,-1.362 5.641,-1.036 6.111,-0.567 6.438,0 L 29.24,39.491 c 1.028,1.781 0.419,4.054 -1.359,5.081 l -9.66,5.576 c -1.776,1.029 -4.051,0.415 -5.077,-1.36 L 6.438,37.175 C 6.111,36.607 5.641,36.139 5.077,35.813 3.299,34.785 1.025,35.393 0,37.175 L -61.169,143.12 c -1.572,2.723 -2.969,5.544 -4.185,8.448 -15.868,37.87 1.973,81.433 39.846,97.299 37.873,15.864 81.435,-1.976 97.303,-39.847 0.765,-1.83 2.836,-2.737 4.698,-2.058 l 10.489,3.817 c 1.929,0.704 2.924,2.836 2.223,4.764 -0.017,0.05 -0.036,0.099 -0.058,0.146 -19.549,47.457 -73.867,70.082 -121.327,50.534 -47.456,-19.549 -70.081,-73.869 -50.531,-121.328 1.567,-3.805 3.386,-7.505 5.443,-11.069 z" />
          </g>
          <g
             transform="translate(292.8716,266.2222)"
             id="g4607"
             style="fill:#ffffff;stroke-width:0.75974023">
            <path
               inkscape:connector-curvature="0"
               id="path4609"
               style="fill:#ffffff;fill-opacity:1;fill-rule:nonzero;stroke:none;stroke-width:0.75974023"
               d="m 0,0 c 0.871,-0.542 1.137,-1.687 0.598,-2.56 l -12.219,-19.704 c -0.224,-0.353 -0.554,-0.622 -0.945,-0.765 -0.965,-0.353 -2.034,0.144 -2.386,1.11 l -14.582,40.071 c -0.351,0.963 -1.416,1.46 -2.38,1.111 L -96.48,-4.239 c -0.804,-0.291 -1.706,10e-4 -2.179,0.715 l -37.833,56.593 c -0.572,0.853 -1.726,1.082 -2.579,0.511 -0.312,-0.207 -0.553,-0.506 -0.691,-0.853 l -33.027,-82.462 c -0.215,-0.529 -0.169,-1.126 0.115,-1.619 l 4.728,-8.193 c 0.515,-0.887 1.651,-1.192 2.54,-0.681 0.36,0.208 0.64,0.533 0.795,0.92 l 27.334,68.248 c 0.141,0.351 0.381,0.647 0.692,0.853 0.856,0.571 2.008,0.341 2.581,-0.512 l 30.935,-46.277 c 0.476,-0.713 1.377,-1.007 2.181,-0.714 L -38.58,4.968 c 0.966,0.351 2.029,-0.148 2.381,-1.111 l 18.624,-51.167 c 0.351,-0.964 1.417,-1.464 2.381,-1.11 0.391,0.14 0.726,0.412 0.944,0.766 l 24.325,39.218 c 0.542,0.873 1.684,1.142 2.561,0.598 l 0.603,-0.375 c 0.87,-0.539 2.017,-0.27 2.559,0.603 0.152,0.244 0.242,0.522 0.268,0.809 l 1.666,18.134 c 0.094,1.025 -0.66,1.929 -1.68,2.021 -0.405,0.039 -0.802,-0.057 -1.144,-0.269 L -0.601,3.537 C -1.477,2.999 -1.748,1.853 -1.209,0.981 -1.058,0.732 -0.851,0.526 -0.608,0.375" />
          </g>
        </g>
      </g>
      <text
         id="text4615"
         style="font-variant:normal;font-weight:100;font-stretch:normal;font-size:55.04050064px;font-family:Datalegreya;-inkscape-font-specification:Datalegreya-Thin;writing-mode:lr-tb;fill:#ffffff;fill-opacity:1;fill-rule:nonzero;stroke:none;stroke-width:0.75974023"
         transform="matrix(1,0,0,-1,23.6372,21.9092)">
        <tspan
           id="tspan4611"
           sodipodi:role="line"
           y="0"
           x="0 32.914219 64.232262 94.009171 121.69454"
           style="stroke-width:0.75974023">Carto</tspan>
        <tspan
           id="tspan4613"
           sodipodi:role="line"
           y="0"
           x="156.25998 199.24661 221.92329 245.48064 271.12952 284.1741 309.87802"
           style="stroke-width:0.75974023">Metrics</tspan>
      </text>
    </g>
  </g>
  <style
     type="text/css"
     id="style4646">
	.st0{fill:#FFFFFF;}
</style>
  <style
     type="text/css"
     id="style4670">
	.st0{fill:#FFFFFF;}
</style>
  <style
     type="text/css"
     id="style5315">
	.st0{fill:#FFD700;}
	.st1{fill:none;}
	.st2{opacity:0.3;}
	.st3{fill:#FCFCFC;}
</style>
</svg>
