<?xml version="1.0" encoding="UTF-8" standalone="no"?>
<!-- Created with Inkscape (http://www.inkscape.org/) -->

<svg
   xmlns:dc="http://purl.org/dc/elements/1.1/"
   xmlns:cc="http://creativecommons.org/ns#"
   xmlns:rdf="http://www.w3.org/1999/02/22-rdf-syntax-ns#"
   xmlns:svg="http://www.w3.org/2000/svg"
   xmlns="http://www.w3.org/2000/svg"
   xmlns:sodipodi="http://sodipodi.sourceforge.net/DTD/sodipodi-0.dtd"
   xmlns:inkscape="http://www.inkscape.org/namespaces/inkscape"
   width="210mm"
   height="297mm"
   viewBox="0 0 210 297"
   version="1.1"
   id="svg8"
   inkscape:version="0.92.1 r15371"
   sodipodi:docname="db.svg">
  <defs
     id="defs2">
    <clipPath
       id="clipPath4797"
       clipPathUnits="userSpaceOnUse">
      <rect
         y="255.42262"
         x="-422.57736"
         height="71.059525"
         width="95.25"
         id="rect4799"
         style="opacity:1;vector-effect:none;fill:none;fill-opacity:1;fill-rule:evenodd;stroke:#ff0000;stroke-width:0.09999999;stroke-linecap:butt;stroke-linejoin:miter;stroke-miterlimit:4;stroke-dasharray:none;stroke-dashoffset:0;stroke-opacity:1" />
    </clipPath>
    <filter
       height="1.2424"
       y="-0.1212"
       width="1.2424"
       x="-0.1212"
       id="filter4912"
       style="color-interpolation-filters:sRGB"
       inkscape:collect="always">
      <feGaussianBlur
         id="feGaussianBlur4914"
         stdDeviation="10.041851"
         inkscape:collect="always" />
    </filter>
  </defs>
  <sodipodi:namedview
     id="base"
     pagecolor="#ffffff"
     bordercolor="#666666"
     borderopacity="1.0"
     inkscape:pageopacity="0.0"
     inkscape:pageshadow="2"
     inkscape:zoom="0.35"
     inkscape:cx="-75.714286"
     inkscape:cy="560"
     inkscape:document-units="mm"
     inkscape:current-layer="layer1"
     showgrid="false"
     inkscape:window-width="1920"
     inkscape:window-height="1017"
     inkscape:window-x="1358"
     inkscape:window-y="-8"
     inkscape:window-maximized="1" />
  <metadata
     id="metadata5">
    <rdf:RDF>
      <cc:Work
         rdf:about="">
        <dc:format>image/svg+xml</dc:format>
        <dc:type
           rdf:resource="http://purl.org/dc/dcmitype/StillImage" />
        <dc:title></dc:title>
      </cc:Work>
    </rdf:RDF>
  </metadata>
  <g
     inkscape:label="Layer 1"
     inkscape:groupmode="layer"
     id="layer1">
    <circle
       style="opacity:0.119;fill:#1b0f3f;fill-opacity:1;fill-rule:evenodd;stroke:#feffff;stroke-width:3.5;stroke-linecap:round;stroke-linejoin:miter;stroke-miterlimit:3.9000001;stroke-dasharray:none;stroke-dashoffset:0;stroke-opacity:1;paint-order:fill markers stroke;filter:url(#filter4912)"
       id="path4816"
       cx="34.379002"
       cy="145.7988"
       r="99.424263" />
    <g
       id="g4706"
       transform="matrix(0.26458333,0,0,0.26458333,591.55709,209.96032)" />
    <g
       id="g4708"
       transform="matrix(0.26458333,0,0,0.26458333,591.55709,209.96032)" />
    <g
       id="g4710"
       transform="matrix(0.26458333,0,0,0.26458333,591.55709,209.96032)" />
    <g
       id="g4712"
       transform="matrix(0.26458333,0,0,0.26458333,591.55709,209.96032)" />
    <g
       id="g4714"
       transform="matrix(0.26458333,0,0,0.26458333,591.55709,209.96032)" />
    <g
       id="g4716"
       transform="matrix(0.26458333,0,0,0.26458333,591.55709,209.96032)" />
    <g
       id="g4718"
       transform="matrix(0.26458333,0,0,0.26458333,591.55709,209.96032)" />
    <g
       id="g4720"
       transform="matrix(0.26458333,0,0,0.26458333,591.55709,209.96032)" />
    <g
       id="g4722"
       transform="matrix(0.26458333,0,0,0.26458333,591.55709,209.96032)" />
    <g
       id="g4724"
       transform="matrix(0.26458333,0,0,0.26458333,591.55709,209.96032)" />
    <g
       id="g4726"
       transform="matrix(0.26458333,0,0,0.26458333,591.55709,209.96032)" />
    <g
       id="g4728"
       transform="matrix(0.26458333,0,0,0.26458333,591.55709,209.96032)" />
    <g
       id="g4730"
       transform="matrix(0.26458333,0,0,0.26458333,591.55709,209.96032)" />
    <g
       id="g4732"
       transform="matrix(0.26458333,0,0,0.26458333,591.55709,209.96032)" />
    <g
       id="g4734"
       transform="matrix(0.26458333,0,0,0.26458333,591.55709,209.96032)" />
    <g
       style="stroke-width:0.40322241"
       id="g4952"
       transform="matrix(0.6561722,0,0,0.6561722,693.42627,132.36309)" />
    <g
       style="stroke-width:0.40322241"
       id="g4954"
       transform="matrix(0.6561722,0,0,0.6561722,693.42627,132.36309)" />
    <g
       style="stroke-width:0.40322241"
       id="g4956"
       transform="matrix(0.6561722,0,0,0.6561722,693.42627,132.36309)" />
    <g
       style="stroke-width:0.40322241"
       id="g4958"
       transform="matrix(0.6561722,0,0,0.6561722,693.42627,132.36309)" />
    <g
       style="stroke-width:0.40322241"
       id="g4960"
       transform="matrix(0.6561722,0,0,0.6561722,693.42627,132.36309)" />
    <g
       style="stroke-width:0.40322241"
       id="g4962"
       transform="matrix(0.6561722,0,0,0.6561722,693.42627,132.36309)" />
    <g
       style="stroke-width:0.40322241"
       id="g4964"
       transform="matrix(0.6561722,0,0,0.6561722,693.42627,132.36309)" />
    <g
       style="stroke-width:0.40322241"
       id="g4966"
       transform="matrix(0.6561722,0,0,0.6561722,693.42627,132.36309)" />
    <g
       style="stroke-width:0.40322241"
       id="g4968"
       transform="matrix(0.6561722,0,0,0.6561722,693.42627,132.36309)" />
    <g
       style="stroke-width:0.40322241"
       id="g4970"
       transform="matrix(0.6561722,0,0,0.6561722,693.42627,132.36309)" />
    <g
       style="stroke-width:0.40322241"
       id="g4972"
       transform="matrix(0.6561722,0,0,0.6561722,693.42627,132.36309)" />
    <g
       style="stroke-width:0.40322241"
       id="g4974"
       transform="matrix(0.6561722,0,0,0.6561722,693.42627,132.36309)" />
    <g
       style="stroke-width:0.40322241"
       id="g4976"
       transform="matrix(0.6561722,0,0,0.6561722,693.42627,132.36309)" />
    <g
       style="stroke-width:0.40322241"
       id="g4978"
       transform="matrix(0.6561722,0,0,0.6561722,693.42627,132.36309)" />
    <g
       style="stroke-width:0.40322241"
       id="g4980"
       transform="matrix(0.6561722,0,0,0.6561722,693.42627,132.36309)" />
    <g
       id="g5364"
       transform="matrix(0.26458333,0,0,0.26458333,492.32871,187.03826)" />
    <g
       id="g5366"
       transform="matrix(0.26458333,0,0,0.26458333,492.32871,187.03826)" />
    <g
       id="g5368"
       transform="matrix(0.26458333,0,0,0.26458333,492.32871,187.03826)" />
    <g
       id="g5370"
       transform="matrix(0.26458333,0,0,0.26458333,492.32871,187.03826)" />
    <g
       id="g5372"
       transform="matrix(0.26458333,0,0,0.26458333,492.32871,187.03826)" />
    <g
       id="g5374"
       transform="matrix(0.26458333,0,0,0.26458333,492.32871,187.03826)" />
    <g
       id="g5376"
       transform="matrix(0.26458333,0,0,0.26458333,492.32871,187.03826)" />
    <g
       id="g5378"
       transform="matrix(0.26458333,0,0,0.26458333,492.32871,187.03826)" />
    <g
       id="g5380"
       transform="matrix(0.26458333,0,0,0.26458333,492.32871,187.03826)" />
    <g
       id="g5382"
       transform="matrix(0.26458333,0,0,0.26458333,492.32871,187.03826)" />
    <g
       id="g5384"
       transform="matrix(0.26458333,0,0,0.26458333,492.32871,187.03826)" />
    <g
       id="g5386"
       transform="matrix(0.26458333,0,0,0.26458333,492.32871,187.03826)" />
    <g
       id="g5388"
       transform="matrix(0.26458333,0,0,0.26458333,492.32871,187.03826)" />
    <g
       id="g5390"
       transform="matrix(0.26458333,0,0,0.26458333,492.32871,187.03826)" />
    <g
       id="g5392"
       transform="matrix(0.26458333,0,0,0.26458333,492.32871,187.03826)" />
    <g
       id="g5475"
       transform="matrix(0.26458333,0,0,0.26458333,156.21367,73.633123)" />
    <g
       id="g5477"
       transform="matrix(0.26458333,0,0,0.26458333,156.21367,73.633123)" />
    <g
       id="g5479"
       transform="matrix(0.26458333,0,0,0.26458333,156.21367,73.633123)" />
    <g
       id="g5481"
       transform="matrix(0.26458333,0,0,0.26458333,156.21367,73.633123)" />
    <g
       id="g5483"
       transform="matrix(0.26458333,0,0,0.26458333,156.21367,73.633123)" />
    <g
       id="g5485"
       transform="matrix(0.26458333,0,0,0.26458333,156.21367,73.633123)" />
    <g
       id="g5487"
       transform="matrix(0.26458333,0,0,0.26458333,156.21367,73.633123)" />
    <g
       id="g5489"
       transform="matrix(0.26458333,0,0,0.26458333,156.21367,73.633123)" />
    <g
       id="g5491"
       transform="matrix(0.26458333,0,0,0.26458333,156.21367,73.633123)" />
    <g
       id="g5493"
       transform="matrix(0.26458333,0,0,0.26458333,156.21367,73.633123)" />
    <g
       id="g5495"
       transform="matrix(0.26458333,0,0,0.26458333,156.21367,73.633123)" />
    <g
       id="g5497"
       transform="matrix(0.26458333,0,0,0.26458333,156.21367,73.633123)" />
    <g
       id="g5499"
       transform="matrix(0.26458333,0,0,0.26458333,156.21367,73.633123)" />
    <g
       id="g5501"
       transform="matrix(0.26458333,0,0,0.26458333,156.21367,73.633123)" />
    <g
       id="g5503"
       transform="matrix(0.26458333,0,0,0.26458333,156.21367,73.633123)" />
    <g
       id="g5949"
       transform="matrix(0.26458333,0,0,0.26458333,528.36839,51.476415)" />
    <g
       id="g5951"
       transform="matrix(0.26458333,0,0,0.26458333,528.36839,51.476415)" />
    <g
       id="g5953"
       transform="matrix(0.26458333,0,0,0.26458333,528.36839,51.476415)" />
    <g
       id="g5955"
       transform="matrix(0.26458333,0,0,0.26458333,528.36839,51.476415)" />
    <g
       id="g5957"
       transform="matrix(0.26458333,0,0,0.26458333,528.36839,51.476415)" />
    <g
       id="g5959"
       transform="matrix(0.26458333,0,0,0.26458333,528.36839,51.476415)" />
    <g
       id="g5961"
       transform="matrix(0.26458333,0,0,0.26458333,528.36839,51.476415)" />
    <g
       id="g5963"
       transform="matrix(0.26458333,0,0,0.26458333,528.36839,51.476415)" />
    <g
       id="g5965"
       transform="matrix(0.26458333,0,0,0.26458333,528.36839,51.476415)" />
    <g
       id="g5967"
       transform="matrix(0.26458333,0,0,0.26458333,528.36839,51.476415)" />
    <g
       id="g5969"
       transform="matrix(0.26458333,0,0,0.26458333,528.36839,51.476415)" />
    <g
       id="g5971"
       transform="matrix(0.26458333,0,0,0.26458333,528.36839,51.476415)" />
    <g
       id="g5973"
       transform="matrix(0.26458333,0,0,0.26458333,528.36839,51.476415)" />
    <g
       id="g5975"
       transform="matrix(0.26458333,0,0,0.26458333,528.36839,51.476415)" />
    <g
       id="g5977"
       transform="matrix(0.26458333,0,0,0.26458333,528.36839,51.476415)" />
    <g
       id="g6368"
       transform="matrix(0.26458333,0,0,0.26458333,393.21071,-8.0856944)" />
    <g
       id="g6370"
       transform="matrix(0.26458333,0,0,0.26458333,393.21071,-8.0856944)" />
    <g
       id="g6372"
       transform="matrix(0.26458333,0,0,0.26458333,393.21071,-8.0856944)" />
    <g
       id="g6374"
       transform="matrix(0.26458333,0,0,0.26458333,393.21071,-8.0856944)" />
    <g
       id="g6376"
       transform="matrix(0.26458333,0,0,0.26458333,393.21071,-8.0856944)" />
    <g
       id="g6378"
       transform="matrix(0.26458333,0,0,0.26458333,393.21071,-8.0856944)" />
    <g
       id="g6380"
       transform="matrix(0.26458333,0,0,0.26458333,393.21071,-8.0856944)" />
    <g
       id="g6382"
       transform="matrix(0.26458333,0,0,0.26458333,393.21071,-8.0856944)" />
    <g
       id="g6384"
       transform="matrix(0.26458333,0,0,0.26458333,393.21071,-8.0856944)" />
    <g
       id="g6386"
       transform="matrix(0.26458333,0,0,0.26458333,393.21071,-8.0856944)" />
    <g
       id="g6388"
       transform="matrix(0.26458333,0,0,0.26458333,393.21071,-8.0856944)" />
    <g
       id="g6390"
       transform="matrix(0.26458333,0,0,0.26458333,393.21071,-8.0856944)" />
    <g
       id="g6392"
       transform="matrix(0.26458333,0,0,0.26458333,393.21071,-8.0856944)" />
    <g
       id="g6394"
       transform="matrix(0.26458333,0,0,0.26458333,393.21071,-8.0856944)" />
    <g
       id="g6396"
       transform="matrix(0.26458333,0,0,0.26458333,393.21071,-8.0856944)" />
    <g
       id="g6500"
       transform="matrix(0.26458333,0,0,0.26458333,508.60663,48.346019)" />
    <g
       id="g6502"
       transform="matrix(0.26458333,0,0,0.26458333,508.60663,48.346019)" />
    <g
       id="g6504"
       transform="matrix(0.26458333,0,0,0.26458333,508.60663,48.346019)" />
    <g
       id="g6506"
       transform="matrix(0.26458333,0,0,0.26458333,508.60663,48.346019)" />
    <g
       id="g6508"
       transform="matrix(0.26458333,0,0,0.26458333,508.60663,48.346019)" />
    <g
       id="g6510"
       transform="matrix(0.26458333,0,0,0.26458333,508.60663,48.346019)" />
    <g
       id="g6512"
       transform="matrix(0.26458333,0,0,0.26458333,508.60663,48.346019)" />
    <g
       id="g6514"
       transform="matrix(0.26458333,0,0,0.26458333,508.60663,48.346019)" />
    <g
       id="g6516"
       transform="matrix(0.26458333,0,0,0.26458333,508.60663,48.346019)" />
    <g
       id="g6518"
       transform="matrix(0.26458333,0,0,0.26458333,508.60663,48.346019)" />
    <g
       id="g6520"
       transform="matrix(0.26458333,0,0,0.26458333,508.60663,48.346019)" />
    <g
       id="g6522"
       transform="matrix(0.26458333,0,0,0.26458333,508.60663,48.346019)" />
    <g
       id="g6524"
       transform="matrix(0.26458333,0,0,0.26458333,508.60663,48.346019)" />
    <g
       id="g6526"
       transform="matrix(0.26458333,0,0,0.26458333,508.60663,48.346019)" />
    <g
       id="g6528"
       transform="matrix(0.26458333,0,0,0.26458333,508.60663,48.346019)" />
    <g
       style="stroke-width:0.07620888"
       id="g6737"
       transform="matrix(3.4718177,0,0,3.4718177,40.18636,58.144981)" />
    <g
       style="stroke-width:0.07620888"
       id="g6739"
       transform="matrix(3.4718177,0,0,3.4718177,40.18636,58.144981)" />
    <g
       style="stroke-width:0.07620888"
       id="g6741"
       transform="matrix(3.4718177,0,0,3.4718177,40.18636,58.144981)" />
    <g
       style="stroke-width:0.07620888"
       id="g6743"
       transform="matrix(3.4718177,0,0,3.4718177,40.18636,58.144981)" />
    <g
       style="stroke-width:0.07620888"
       id="g6745"
       transform="matrix(3.4718177,0,0,3.4718177,40.18636,58.144981)" />
    <g
       style="stroke-width:0.07620888"
       id="g6747"
       transform="matrix(3.4718177,0,0,3.4718177,40.18636,58.144981)" />
    <g
       style="stroke-width:0.07620888"
       id="g6749"
       transform="matrix(3.4718177,0,0,3.4718177,40.18636,58.144981)" />
    <g
       style="stroke-width:0.07620888"
       id="g6751"
       transform="matrix(3.4718177,0,0,3.4718177,40.18636,58.144981)" />
    <g
       style="stroke-width:0.07620888"
       id="g6753"
       transform="matrix(3.4718177,0,0,3.4718177,40.18636,58.144981)" />
    <g
       style="stroke-width:0.07620888"
       id="g6755"
       transform="matrix(3.4718177,0,0,3.4718177,40.18636,58.144981)" />
    <g
       style="stroke-width:0.07620888"
       id="g6757"
       transform="matrix(3.4718177,0,0,3.4718177,40.18636,58.144981)" />
    <g
       style="stroke-width:0.07620888"
       id="g6759"
       transform="matrix(3.4718177,0,0,3.4718177,40.18636,58.144981)" />
    <g
       style="stroke-width:0.07620888"
       id="g6761"
       transform="matrix(3.4718177,0,0,3.4718177,40.18636,58.144981)" />
    <g
       style="stroke-width:0.07620888"
       id="g6763"
       transform="matrix(3.4718177,0,0,3.4718177,40.18636,58.144981)" />
    <g
       style="stroke-width:0.07620888"
       id="g6765"
       transform="matrix(3.4718177,0,0,3.4718177,40.18636,58.144981)" />
    <g
       id="g4814"
       transform="matrix(0.95380331,0,0,0.95380331,688.00037,-147.06323)"
       style="stroke-width:1.04843414">
      <path
         id="path4675"
         d="m -615.98372,248.6739 v 0 c -2.11459,-12.90738 -32.3234,-23.14187 -69.29543,-23.14187 -36.97204,0 -67.18085,10.23449 -69.29544,23.14187 v 0 h -0.13017 v 1.44637 33.26644 1.44636 1.44637 31.82007 1.44637 1.44636 34.71281 h 0.13017 c 2.11459,12.90448 32.3263,23.14187 69.29544,23.14187 36.96913,0 67.18084,-10.23739 69.29543,-23.14187 h 0.13017 v -34.71281 -1.44636 -1.44637 -31.82007 -1.44637 -1.44636 -33.26644 -1.44637 z"
         style="fill:#424a60;stroke-width:0.27739823"
         inkscape:connector-curvature="0" />
      <g
         transform="matrix(2.8927337,0,0,2.8927337,-761.93659,225.53203)"
         id="g4683"
         style="stroke-width:0.09589484">
        <path
           id="path4677"
           d="M 26.5,41 C 13.245,41 2.5,37.194 2.5,32.5 V 45 h 0.045 c 0.731,4.461 11.175,8 23.955,8 12.78,0 23.224,-3.539 23.955,-8 H 50.5 V 32.5 c 0,4.694 -10.745,8.5 -24,8.5 z"
           style="fill:#424a60;stroke-width:0.09589484"
           inkscape:connector-curvature="0" />
        <path
           id="path4679"
           d="m 2.5,32 v 0.5 c 0,-0.168 0.018,-0.334 0.045,-0.5 z"
           style="fill:#424a60;stroke-width:0.09589484"
           inkscape:connector-curvature="0" />
        <path
           id="path4681"
           d="m 50.455,32 c 0.027,0.166 0.045,0.332 0.045,0.5 V 32 Z"
           style="fill:#424a60;stroke-width:0.09589484"
           inkscape:connector-curvature="0" />
      </g>
      <g
         transform="matrix(2.8927337,0,0,2.8927337,-761.93659,225.53203)"
         id="g4691"
         style="stroke-width:0.09589484">
        <path
           id="path4685"
           d="M 26.5,29 C 13.245,29 2.5,25.194 2.5,20.5 V 33 h 0.045 c 0.731,4.461 11.175,8 23.955,8 12.78,0 23.224,-3.539 23.955,-8 H 50.5 V 20.5 c 0,4.694 -10.745,8.5 -24,8.5 z"
           style="fill:#556080;stroke-width:0.09589484"
           inkscape:connector-curvature="0" />
        <path
           id="path4687"
           d="m 2.5,20 v 0.5 c 0,-0.168 0.018,-0.334 0.045,-0.5 z"
           style="fill:#556080;stroke-width:0.09589484"
           inkscape:connector-curvature="0" />
        <path
           id="path4689"
           d="m 50.455,20 c 0.027,0.166 0.045,0.332 0.045,0.5 V 20 Z"
           style="fill:#556080;stroke-width:0.09589484"
           inkscape:connector-curvature="0" />
      </g>
      <ellipse
         id="ellipse4693"
         ry="24.588236"
         rx="69.425606"
         cy="250.12025"
         cx="-685.27911"
         style="fill:#b3b3b3;stroke-width:0.27739823" />
      <g
         transform="matrix(2.8927337,0,0,2.8927337,-761.93659,225.53203)"
         id="g4701"
         style="fill:#424a60;fill-opacity:1;stroke-width:0.09589484">
        <path
           id="path4695"
           d="M 26.5,17 C 13.245,17 2.5,13.194 2.5,8.5 V 21 h 0.045 c 0.731,4.461 11.175,8 23.955,8 12.78,0 23.224,-3.539 23.955,-8 H 50.5 V 8.5 c 0,4.694 -10.745,8.5 -24,8.5 z"
           style="fill:#424a60;fill-opacity:1;stroke-width:0.09589484"
           inkscape:connector-curvature="0" />
        <path
           id="path4697"
           d="M 2.5,8 V 8.5 C 2.5,8.332 2.518,8.166 2.545,8 Z"
           style="fill:#424a60;fill-opacity:1;stroke-width:0.09589484"
           inkscape:connector-curvature="0" />
        <path
           id="path4699"
           d="M 50.455,8 C 50.482,8.166 50.5,8.332 50.5,8.5 V 8 Z"
           style="fill:#424a60;fill-opacity:1;stroke-width:0.09589484"
           inkscape:connector-curvature="0" />
      </g>
    </g>
    <g
       style="stroke-width:0.03000761"
       id="g4703"
       transform="matrix(8.8172082,0,0,8.8172082,-30.49634,150.89018)" />
    <g
       style="stroke-width:0.03000761"
       id="g4705"
       transform="matrix(8.8172082,0,0,8.8172082,-30.49634,150.89018)" />
    <g
       style="stroke-width:0.03000761"
       id="g4707"
       transform="matrix(8.8172082,0,0,8.8172082,-30.49634,150.89018)" />
    <g
       style="stroke-width:0.03000761"
       id="g4709"
       transform="matrix(8.8172082,0,0,8.8172082,-30.49634,150.89018)" />
    <g
       style="stroke-width:0.03000761"
       id="g4711"
       transform="matrix(8.8172082,0,0,8.8172082,-30.49634,150.89018)" />
    <g
       style="stroke-width:0.03000761"
       id="g4713"
       transform="matrix(8.8172082,0,0,8.8172082,-30.49634,150.89018)" />
    <g
       style="stroke-width:0.03000761"
       id="g4715"
       transform="matrix(8.8172082,0,0,8.8172082,-30.49634,150.89018)" />
    <g
       style="stroke-width:0.03000761"
       id="g4717"
       transform="matrix(8.8172082,0,0,8.8172082,-30.49634,150.89018)" />
    <g
       style="stroke-width:0.03000761"
       id="g4719"
       transform="matrix(8.8172082,0,0,8.8172082,-30.49634,150.89018)" />
    <g
       style="stroke-width:0.03000761"
       id="g4721"
       transform="matrix(8.8172082,0,0,8.8172082,-30.49634,150.89018)" />
    <g
       style="stroke-width:0.03000761"
       id="g4723"
       transform="matrix(8.8172082,0,0,8.8172082,-30.49634,150.89018)" />
    <g
       style="stroke-width:0.03000761"
       id="g4725"
       transform="matrix(8.8172082,0,0,8.8172082,-30.49634,150.89018)" />
    <g
       style="stroke-width:0.03000761"
       id="g4727"
       transform="matrix(8.8172082,0,0,8.8172082,-30.49634,150.89018)" />
    <g
       style="stroke-width:0.03000761"
       id="g4729"
       transform="matrix(8.8172082,0,0,8.8172082,-30.49634,150.89018)" />
    <g
       style="stroke-width:0.03000761"
       id="g4731"
       transform="matrix(8.8172082,0,0,8.8172082,-30.49634,150.89018)" />
  </g>
</svg>
