<?xml version="1.0" encoding="UTF-8" standalone="no"?>
<!-- Created with Inkscape (http://www.inkscape.org/) -->

<svg
   xmlns:dc="http://purl.org/dc/elements/1.1/"
   xmlns:cc="http://creativecommons.org/ns#"
   xmlns:rdf="http://www.w3.org/1999/02/22-rdf-syntax-ns#"
   xmlns:svg="http://www.w3.org/2000/svg"
   xmlns="http://www.w3.org/2000/svg"
   xmlns:sodipodi="http://sodipodi.sourceforge.net/DTD/sodipodi-0.dtd"
   xmlns:inkscape="http://www.inkscape.org/namespaces/inkscape"
   width="216.02904mm"
   height="216.02904mm"
   viewBox="0 0 216.02904 216.02904"
   version="1.1"
   id="svg8"
   inkscape:version="0.92.1 r15371"
   sodipodi:docname="monitor.svg">
  <defs
     id="defs2">
    <clipPath
       clipPathUnits="userSpaceOnUse"
       id="clipPath4797">
      <rect
         style="opacity:1;vector-effect:none;fill:none;fill-opacity:1;fill-rule:evenodd;stroke:#ff0000;stroke-width:0.09999999;stroke-linecap:butt;stroke-linejoin:miter;stroke-miterlimit:4;stroke-dasharray:none;stroke-dashoffset:0;stroke-opacity:1"
         id="rect4799"
         width="95.25"
         height="71.059525"
         x="-422.57736"
         y="255.42262" />
    </clipPath>
    <filter
       inkscape:collect="always"
       style="color-interpolation-filters:sRGB"
       id="filter4900"
       x="-0.1212"
       width="1.2424"
       y="-0.1212"
       height="1.2424">
      <feGaussianBlur
         inkscape:collect="always"
         stdDeviation="10.041851"
         id="feGaussianBlur4902" />
    </filter>
  </defs>
  <sodipodi:namedview
     id="base"
     pagecolor="#ffffff"
     bordercolor="#666666"
     borderopacity="1.0"
     inkscape:pageopacity="0.0"
     inkscape:pageshadow="2"
     inkscape:zoom="0.35"
     inkscape:cx="87.754936"
     inkscape:cy="354.19137"
     inkscape:document-units="mm"
     inkscape:current-layer="layer1"
     showgrid="false"
     inkscape:snap-global="false"
     showguides="true"
     inkscape:guide-bbox="true"
     inkscape:window-width="1366"
     inkscape:window-height="705"
     inkscape:window-x="-8"
     inkscape:window-y="-8"
     inkscape:window-maximized="1"
     fit-margin-top="0"
     fit-margin-left="0"
     fit-margin-right="0"
     fit-margin-bottom="0">
    <sodipodi:guide
       position="797.03534,330.3828"
       orientation="1,0"
       id="guide4848"
       inkscape:locked="false" />
    <sodipodi:guide
       position="558.0588,615.78902"
       orientation="0,1"
       id="guide4834"
       inkscape:locked="false" />
  </sodipodi:namedview>
  <metadata
     id="metadata5">
    <rdf:RDF>
      <cc:Work
         rdf:about="">
        <dc:format>image/svg+xml</dc:format>
        <dc:type
           rdf:resource="http://purl.org/dc/dcmitype/StillImage" />
        <dc:title></dc:title>
      </cc:Work>
    </rdf:RDF>
  </metadata>
  <g
     inkscape:label="Layer 1"
     inkscape:groupmode="layer"
     id="layer1"
     transform="translate(794.3626,-197.53812)">
    <circle
       style="opacity:0.119;fill:#1b0f3f;fill-opacity:1;fill-rule:evenodd;stroke:#feffff;stroke-width:3.5;stroke-linecap:round;stroke-linejoin:miter;stroke-miterlimit:3.9000001;stroke-dasharray:none;stroke-dashoffset:0;stroke-opacity:1;paint-order:fill markers stroke;filter:url(#filter4900)"
       id="path4816"
       cx="-686.34808"
       cy="305.55264"
       r="99.424263" />
    <g
       id="g4706"
       transform="matrix(0.26458333,0,0,0.26458333,-52.06285,207.94036)" />
    <g
       id="g4708"
       transform="matrix(0.26458333,0,0,0.26458333,-52.06285,207.94036)" />
    <g
       id="g4710"
       transform="matrix(0.26458333,0,0,0.26458333,-52.06285,207.94036)" />
    <g
       id="g4712"
       transform="matrix(0.26458333,0,0,0.26458333,-52.06285,207.94036)" />
    <g
       id="g4714"
       transform="matrix(0.26458333,0,0,0.26458333,-52.06285,207.94036)" />
    <g
       id="g4716"
       transform="matrix(0.26458333,0,0,0.26458333,-52.06285,207.94036)" />
    <g
       id="g4718"
       transform="matrix(0.26458333,0,0,0.26458333,-52.06285,207.94036)" />
    <g
       id="g4720"
       transform="matrix(0.26458333,0,0,0.26458333,-52.06285,207.94036)" />
    <g
       id="g4722"
       transform="matrix(0.26458333,0,0,0.26458333,-52.06285,207.94036)" />
    <g
       id="g4724"
       transform="matrix(0.26458333,0,0,0.26458333,-52.06285,207.94036)" />
    <g
       id="g4726"
       transform="matrix(0.26458333,0,0,0.26458333,-52.06285,207.94036)" />
    <g
       id="g4728"
       transform="matrix(0.26458333,0,0,0.26458333,-52.06285,207.94036)" />
    <g
       id="g4730"
       transform="matrix(0.26458333,0,0,0.26458333,-52.06285,207.94036)" />
    <g
       id="g4732"
       transform="matrix(0.26458333,0,0,0.26458333,-52.06285,207.94036)" />
    <g
       id="g4734"
       transform="matrix(0.26458333,0,0,0.26458333,-52.06285,207.94036)" />
    <g
       id="g5195"
       transform="matrix(0.72495091,0,0,0.72495091,-550.65775,183.08469)"
       style="stroke-width:1.37940371">
      <path
         inkscape:export-ydpi="99.733902"
         inkscape:export-xdpi="99.733902"
         id="path4485"
         d="m -204.43977,230.5813 h 38.34908 v 21.2044 h -38.34908 z m 0,0"
         inkscape:connector-curvature="0"
         style="fill:#61a260;fill-opacity:0.96470588;stroke-width:0.48662302" />
      <path
         inkscape:export-ydpi="99.733902"
         inkscape:export-xdpi="99.733902"
         id="path4489"
         d="m -147.98519,257.01228 h -74.56008 c -1.95274,0 -3.53628,-1.58354 -3.53628,-3.53629 0,-1.95274 1.58354,-3.5348 3.53628,-3.5348 h 74.56008 c 1.95274,0 3.53481,1.58206 3.53481,3.5348 0,1.95275 -1.58207,3.53629 -3.53481,3.53629 z m 0,0"
         inkscape:connector-curvature="0"
         style="fill:#3a434d;fill-opacity:1;stroke-width:0.48662302" />
      <path
         inkscape:export-ydpi="99.733902"
         inkscape:export-xdpi="99.733902"
         id="path4491"
         d="m -88.093654,101.77885 v 125.9408 c 0,2.20481 -1.786677,3.98852 -3.992965,3.98852 H -278.44383 c -2.20628,0 -3.99297,-1.78371 -3.99297,-3.98852 v -125.9408 c 0,-3.303489 2.68224,-5.982771 5.98723,-5.982771 h 182.36869 c 3.307953,0 5.987226,2.679282 5.987226,5.982771 z m 0,0"
         inkscape:connector-curvature="0"
         style="fill:#dceeef;stroke-width:0.48662302" />
      <path
         inkscape:export-ydpi="99.733902"
         inkscape:export-xdpi="99.733902"
         id="path4493"
         d="m -281.67765,101.77885 v 125.93932 c 0,2.20777 1.97807,3.99 4.4174,3.99 h 9.61289 c -2.43933,0 -4.4174,-1.78223 -4.4174,-3.99 V 101.77885 c 0,-3.302015 2.96628,-5.981286 6.62692,-5.981286 h -9.61289 c -3.66064,0 -6.62692,2.679271 -6.62692,5.981286 z m 0,0"
         inkscape:connector-curvature="0"
         style="fill:#bcdde2;stroke-width:0.48662302" />
      <path
         inkscape:export-ydpi="99.733902"
         inkscape:export-xdpi="99.733902"
         id="path4503"
         d="m -88.093654,101.77885 v 8.54047 H -282.4368 v -8.54047 c 0,-3.303489 2.68224,-5.982771 5.98723,-5.982771 h 182.36869 c 3.307953,0 5.987226,2.679282 5.987226,5.982771 z m 0,0"
         inkscape:connector-curvature="0"
         style="fill:#34404c;fill-opacity:1;stroke-width:0.48662302" />
      <path
         inkscape:export-ydpi="99.733902"
         inkscape:export-xdpi="99.733902"
         id="path4505"
         d="m -88.093654,212.57218 v 15.14599 c 0,2.20777 -1.786677,3.99 -3.990001,3.99 H -278.4468 c -2.20331,0 -3.99,-1.78223 -3.99,-3.99 v -15.14599 z m 0,0"
         inkscape:connector-curvature="0"
         style="fill:#333d47;fill-opacity:0.96078431;stroke-width:0.48662302" />
      <path
         inkscape:export-ydpi="99.733902"
         inkscape:export-xdpi="99.733902"
         id="path4507"
         d="m -88.093654,212.57218 v 15.14599 c 0,2.20777 -1.786677,3.99 -3.990001,3.99 h -8.682815 c 2.203329,0 3.990006,-1.78223 3.990006,-3.99 v -15.14599 z m 0,0"
         inkscape:connector-curvature="0"
         style="fill:#000000;fill-opacity:0;stroke-width:0.48662302" />
      <path
         inkscape:export-ydpi="99.733902"
         inkscape:export-xdpi="99.733902"
         transform="matrix(1.3927019,0,0,1.3927019,315.03465,-243.74687)"
         clip-path="url(#clipPath4797)"
         id="path4692"
         d="m -360.46636,243.94187 -2.79638,8.7122 c -0.67681,2.10847 -2.37226,3.73274 -4.50797,4.31827 l -7.01464,1.92325 c -0.56462,0.15478 -1.14776,0.23337 -1.73328,0.23337 h -10.49655 c -1.09511,0 -2.02089,0.81068 -2.16562,1.896 l -1.20385,9.02864 -6.70454,0.3511 c -1.12739,0.059 -2.02407,0.96706 -2.06904,2.09497 l -0.23204,5.82692 c -0.0524,1.31207 1.05621,2.37358 2.36458,2.26457 l 4.46669,-0.37227 c 1.14829,-0.0958 2.1971,-0.69056 2.86861,-1.62692 l 4.13094,-5.76157 8.83524,-0.31564 c 1.88965,-0.0675 3.22474,1.83382 2.53867,3.59595 -1.53961,3.95367 -1.54172,4.29233 -1.54172,4.63999 0,1.20783 0.97737,2.18493 2.18492,2.18493 1.07977,0 1.97803,-0.78528 2.15292,-1.81371 0.14922,-0.50351 0.8165,-2.24923 1.69016,-4.46538 0.36486,-0.92551 1.62189,-1.06177 2.17011,-0.23151 l 0.56489,0.85487 c 1.04431,1.58089 2.98873,2.30849 4.81435,1.80181 l 3.90155,-1.08267 c 1.08744,-0.30163 1.96559,-1.10437 2.36352,-2.16032 l 0.74824,-1.98544 c 0.52838,-1.40202 1.73832,-2.43549 3.2057,-2.73844 l 2.52147,-0.52043 c 1.71583,-0.35401 3.5351,0.68342 3.83382,2.40982 0.30506,1.76372 -0.93425,3.36603 -2.65589,3.56341 l -6.07986,0.16325 c -1.2364,0.0333 -2.22964,1.02949 -2.25901,2.26616 l -0.0138,0.58208 c -0.0111,0.46752 0.24685,0.90011 0.66331,1.11257 l 3.4962,1.78382 c 1.33086,0.67892 1.76451,2.3712 0.92446,3.6068 v 0 c -0.46223,0.67972 -1.23058,1.08638 -2.05264,1.08638 h -18.43961 c -0.4826,0 -0.96096,-0.0907 -1.40996,-0.26776 l -15.47336,-6.09547 c -1.14512,-0.45111 -2.44713,-0.2069 -3.35095,0.62839 l -14.65421,13.54402 c -1.16814,1.07976 -1.65735,2.70907 -1.27715,4.25371 l 2.97948,12.10389 c 0.45984,1.86822 2.08756,3.21575 4.0087,3.3192 l 16.50947,0.88767 c 3.24829,0.17463 5.87692,2.7051 6.17537,5.94413 l 1.25228,13.59615 c 0.0937,1.01706 0.36168,1.99787 0.80327,2.91915 1.39118,2.90221 4.63471,9.49907 6.43784,11.77951 2.32146,2.93608 8.04095,3.0525 9.96871,1.29725 l 13.42337,-10.98418 c 1.12183,-1.02129 1.85446,-2.40003 2.07354,-3.90128 l 1.57268,-10.78759 10.65927,-11.74697 c 1.03823,-1.14459 0.57203,-2.89957 -0.7493,-3.46657 l -0.19103,0.12806 c -0.80856,0.54187 -1.74122,0.87048 -2.70563,0.95594 -0.17065,0.0148 -0.34131,0.0236 -0.51197,0.0236 -1.9759,0 -3.80867,-1.00277 -4.87336,-2.69717 l -8.13805,-12.92198 c -0.64214,-1.02209 -0.33496,-2.37067 0.68501,-3.01493 1.02843,-0.63791 2.37066,-0.33284 3.01492,0.68501 l 8.13806,12.9241 c 0.2794,0.4482 0.77443,0.69136 1.3036,0.64876 0.23257,-0.0214 0.4609,-0.1024 0.65722,-0.23257 l 11.00006,-6.02827 c 1.14644,-0.62838 1.45018,-2.1381 0.63553,-3.16071 v 0 c -0.45297,-0.56859 -1.16682,-0.8636 -1.88887,-0.78079 l -2.3106,0.26565 c -0.62071,0.0714 -1.24222,-0.12621 -1.70789,-0.54266 l -6.91885,-6.18914 c -0.89826,-0.80433 -0.97499,-2.18493 -0.17066,-3.0853 0.80222,-0.90038 2.18282,-0.97499 3.08531,-0.17066 l 6.18781,5.53482 3.75973,-0.43312 c 0.77893,-0.096 1.55125,0.24526 2.01427,0.88132 l 0.72337,0.99007 3.66448,-0.43973 c 1.78091,-0.21379 3.51129,0.68236 4.36457,2.26007 l 7.39986,13.6824 c 0.53684,0.99271 1.43696,1.73937 2.51196,2.08306 l 2.66197,0.93504 c 0.008,-0.43022 0.0325,-0.85672 0.0325,-1.28879 0,-34.739 -26.15671,-63.35262 -59.84637,-67.26211 z m 28.2948,37.38933 c -0.37332,0.254 -0.8001,0.37544 -1.22052,0.37544 -0.70194,0 -1.39118,-0.33707 -1.8116,-0.96229 l -4.55136,-6.73629 c -0.67628,-0.99853 -0.41408,-2.3577 0.58684,-3.03212 0.99642,-0.67866 2.35982,-0.41169 3.03213,0.58684 l 4.55136,6.7363 c 0.67627,0.99853 0.41381,2.3577 -0.58685,3.03212 z"
         style="fill:#bee86e;stroke-width:0.26205698"
         inkscape:connector-curvature="0" />
      <rect
         inkscape:export-ydpi="99.733902"
         inkscape:export-xdpi="99.733902"
         y="110.23974"
         x="-140.25757"
         height="102.33244"
         width="51.876347"
         id="rect4801"
         style="opacity:1;vector-effect:none;fill:#00c3ff;fill-opacity:1;fill-rule:evenodd;stroke:none;stroke-width:0.13794035;stroke-linecap:butt;stroke-linejoin:miter;stroke-miterlimit:4;stroke-dasharray:none;stroke-dashoffset:0;stroke-opacity:1" />
      <path
         inkscape:export-ydpi="99.733902"
         inkscape:export-xdpi="99.733902"
         id="path4487"
         d="m -137.09428,198.93935 h 32.59467 v 2.57358 h -32.59467 z m 0,0"
         inkscape:connector-curvature="0"
         style="fill:#34404c;fill-opacity:1;stroke-width:0.48662302" />
      <path
         inkscape:export-ydpi="99.733902"
         inkscape:export-xdpi="99.733902"
         id="path4487-7"
         d="m -136.85457,188.02616 h 32.59466 v 2.57358 h -32.59466 z m 0,0"
         inkscape:connector-curvature="0"
         style="fill:#34404c;fill-opacity:1;stroke-width:0.48662302" />
      <path
         inkscape:export-ydpi="99.733902"
         inkscape:export-xdpi="99.733902"
         id="path4487-2"
         d="m -137.09428,119.59314 h 32.59465 v 2.57358 h -32.59465 z m 0,0"
         inkscape:connector-curvature="0"
         style="fill:#34404c;fill-opacity:1;stroke-width:0.48662302" />
      <path
         inkscape:export-ydpi="99.733902"
         inkscape:export-xdpi="99.733902"
         id="path4487-9"
         d="m -137.28755,128.50788 h 32.59466 v 2.57358 h -32.59466 z m 0,0"
         inkscape:connector-curvature="0"
         style="fill:#34404c;fill-opacity:1;stroke-width:0.48662302" />
      <path
         inkscape:export-ydpi="99.733902"
         inkscape:export-xdpi="99.733902"
         id="path4487-93"
         d="m -137.09428,157.26513 h 44.672723 v 2.57359 h -44.672723 z m 0,0"
         inkscape:connector-curvature="0"
         style="fill:#34404c;fill-opacity:1;stroke-width:0.48662302" />
      <path
         inkscape:export-ydpi="99.733902"
         inkscape:export-xdpi="99.733902"
         id="path4487-73"
         d="m -137.09428,144.61194 h 8.43857 v 2.57358 h -8.43857 z m 0,0"
         inkscape:connector-curvature="0"
         style="fill:#34404c;fill-opacity:1;stroke-width:0.48662302" />
      <path
         inkscape:export-ydpi="99.733902"
         inkscape:export-xdpi="99.733902"
         id="path4487-1"
         d="m -136.81635,170.58443 h 6.13798 v 2.57358 h -6.13798 z m 0,0"
         inkscape:connector-curvature="0"
         style="fill:#34404c;fill-opacity:1;stroke-width:0.48662302" />
    </g>
    <g
       style="stroke-width:0.40322241"
       id="g4952"
       transform="matrix(0.6561722,0,0,0.6561722,49.806326,130.34313)" />
    <g
       style="stroke-width:0.40322241"
       id="g4954"
       transform="matrix(0.6561722,0,0,0.6561722,49.806326,130.34313)" />
    <g
       style="stroke-width:0.40322241"
       id="g4956"
       transform="matrix(0.6561722,0,0,0.6561722,49.806326,130.34313)" />
    <g
       style="stroke-width:0.40322241"
       id="g4958"
       transform="matrix(0.6561722,0,0,0.6561722,49.806326,130.34313)" />
    <g
       style="stroke-width:0.40322241"
       id="g4960"
       transform="matrix(0.6561722,0,0,0.6561722,49.806326,130.34313)" />
    <g
       style="stroke-width:0.40322241"
       id="g4962"
       transform="matrix(0.6561722,0,0,0.6561722,49.806326,130.34313)" />
    <g
       style="stroke-width:0.40322241"
       id="g4964"
       transform="matrix(0.6561722,0,0,0.6561722,49.806326,130.34313)" />
    <g
       style="stroke-width:0.40322241"
       id="g4966"
       transform="matrix(0.6561722,0,0,0.6561722,49.806326,130.34313)" />
    <g
       style="stroke-width:0.40322241"
       id="g4968"
       transform="matrix(0.6561722,0,0,0.6561722,49.806326,130.34313)" />
    <g
       style="stroke-width:0.40322241"
       id="g4970"
       transform="matrix(0.6561722,0,0,0.6561722,49.806326,130.34313)" />
    <g
       style="stroke-width:0.40322241"
       id="g4972"
       transform="matrix(0.6561722,0,0,0.6561722,49.806326,130.34313)" />
    <g
       style="stroke-width:0.40322241"
       id="g4974"
       transform="matrix(0.6561722,0,0,0.6561722,49.806326,130.34313)" />
    <g
       style="stroke-width:0.40322241"
       id="g4976"
       transform="matrix(0.6561722,0,0,0.6561722,49.806326,130.34313)" />
    <g
       style="stroke-width:0.40322241"
       id="g4978"
       transform="matrix(0.6561722,0,0,0.6561722,49.806326,130.34313)" />
    <g
       style="stroke-width:0.40322241"
       id="g4980"
       transform="matrix(0.6561722,0,0,0.6561722,49.806326,130.34313)" />
    <g
       id="g5364"
       transform="matrix(0.26458333,0,0,0.26458333,-151.29123,185.0183)" />
    <g
       id="g5366"
       transform="matrix(0.26458333,0,0,0.26458333,-151.29123,185.0183)" />
    <g
       id="g5368"
       transform="matrix(0.26458333,0,0,0.26458333,-151.29123,185.0183)" />
    <g
       id="g5370"
       transform="matrix(0.26458333,0,0,0.26458333,-151.29123,185.0183)" />
    <g
       id="g5372"
       transform="matrix(0.26458333,0,0,0.26458333,-151.29123,185.0183)" />
    <g
       id="g5374"
       transform="matrix(0.26458333,0,0,0.26458333,-151.29123,185.0183)" />
    <g
       id="g5376"
       transform="matrix(0.26458333,0,0,0.26458333,-151.29123,185.0183)" />
    <g
       id="g5378"
       transform="matrix(0.26458333,0,0,0.26458333,-151.29123,185.0183)" />
    <g
       id="g5380"
       transform="matrix(0.26458333,0,0,0.26458333,-151.29123,185.0183)" />
    <g
       id="g5382"
       transform="matrix(0.26458333,0,0,0.26458333,-151.29123,185.0183)" />
    <g
       id="g5384"
       transform="matrix(0.26458333,0,0,0.26458333,-151.29123,185.0183)" />
    <g
       id="g5386"
       transform="matrix(0.26458333,0,0,0.26458333,-151.29123,185.0183)" />
    <g
       id="g5388"
       transform="matrix(0.26458333,0,0,0.26458333,-151.29123,185.0183)" />
    <g
       id="g5390"
       transform="matrix(0.26458333,0,0,0.26458333,-151.29123,185.0183)" />
    <g
       id="g5392"
       transform="matrix(0.26458333,0,0,0.26458333,-151.29123,185.0183)" />
    <g
       id="g5475"
       transform="matrix(0.26458333,0,0,0.26458333,-487.40627,71.613163)" />
    <g
       id="g5477"
       transform="matrix(0.26458333,0,0,0.26458333,-487.40627,71.613163)" />
    <g
       id="g5479"
       transform="matrix(0.26458333,0,0,0.26458333,-487.40627,71.613163)" />
    <g
       id="g5481"
       transform="matrix(0.26458333,0,0,0.26458333,-487.40627,71.613163)" />
    <g
       id="g5483"
       transform="matrix(0.26458333,0,0,0.26458333,-487.40627,71.613163)" />
    <g
       id="g5485"
       transform="matrix(0.26458333,0,0,0.26458333,-487.40627,71.613163)" />
    <g
       id="g5487"
       transform="matrix(0.26458333,0,0,0.26458333,-487.40627,71.613163)" />
    <g
       id="g5489"
       transform="matrix(0.26458333,0,0,0.26458333,-487.40627,71.613163)" />
    <g
       id="g5491"
       transform="matrix(0.26458333,0,0,0.26458333,-487.40627,71.613163)" />
    <g
       id="g5493"
       transform="matrix(0.26458333,0,0,0.26458333,-487.40627,71.613163)" />
    <g
       id="g5495"
       transform="matrix(0.26458333,0,0,0.26458333,-487.40627,71.613163)" />
    <g
       id="g5497"
       transform="matrix(0.26458333,0,0,0.26458333,-487.40627,71.613163)" />
    <g
       id="g5499"
       transform="matrix(0.26458333,0,0,0.26458333,-487.40627,71.613163)" />
    <g
       id="g5501"
       transform="matrix(0.26458333,0,0,0.26458333,-487.40627,71.613163)" />
    <g
       id="g5503"
       transform="matrix(0.26458333,0,0,0.26458333,-487.40627,71.613163)" />
    <g
       id="g5949"
       transform="matrix(0.26458333,0,0,0.26458333,-115.25155,49.456455)" />
    <g
       id="g5951"
       transform="matrix(0.26458333,0,0,0.26458333,-115.25155,49.456455)" />
    <g
       id="g5953"
       transform="matrix(0.26458333,0,0,0.26458333,-115.25155,49.456455)" />
    <g
       id="g5955"
       transform="matrix(0.26458333,0,0,0.26458333,-115.25155,49.456455)" />
    <g
       id="g5957"
       transform="matrix(0.26458333,0,0,0.26458333,-115.25155,49.456455)" />
    <g
       id="g5959"
       transform="matrix(0.26458333,0,0,0.26458333,-115.25155,49.456455)" />
    <g
       id="g5961"
       transform="matrix(0.26458333,0,0,0.26458333,-115.25155,49.456455)" />
    <g
       id="g5963"
       transform="matrix(0.26458333,0,0,0.26458333,-115.25155,49.456455)" />
    <g
       id="g5965"
       transform="matrix(0.26458333,0,0,0.26458333,-115.25155,49.456455)" />
    <g
       id="g5967"
       transform="matrix(0.26458333,0,0,0.26458333,-115.25155,49.456455)" />
    <g
       id="g5969"
       transform="matrix(0.26458333,0,0,0.26458333,-115.25155,49.456455)" />
    <g
       id="g5971"
       transform="matrix(0.26458333,0,0,0.26458333,-115.25155,49.456455)" />
    <g
       id="g5973"
       transform="matrix(0.26458333,0,0,0.26458333,-115.25155,49.456455)" />
    <g
       id="g5975"
       transform="matrix(0.26458333,0,0,0.26458333,-115.25155,49.456455)" />
    <g
       id="g5977"
       transform="matrix(0.26458333,0,0,0.26458333,-115.25155,49.456455)" />
    <g
       id="g6368"
       transform="matrix(0.26458333,0,0,0.26458333,-250.40923,-10.105654)" />
    <g
       id="g6370"
       transform="matrix(0.26458333,0,0,0.26458333,-250.40923,-10.105654)" />
    <g
       id="g6372"
       transform="matrix(0.26458333,0,0,0.26458333,-250.40923,-10.105654)" />
    <g
       id="g6374"
       transform="matrix(0.26458333,0,0,0.26458333,-250.40923,-10.105654)" />
    <g
       id="g6376"
       transform="matrix(0.26458333,0,0,0.26458333,-250.40923,-10.105654)" />
    <g
       id="g6378"
       transform="matrix(0.26458333,0,0,0.26458333,-250.40923,-10.105654)" />
    <g
       id="g6380"
       transform="matrix(0.26458333,0,0,0.26458333,-250.40923,-10.105654)" />
    <g
       id="g6382"
       transform="matrix(0.26458333,0,0,0.26458333,-250.40923,-10.105654)" />
    <g
       id="g6384"
       transform="matrix(0.26458333,0,0,0.26458333,-250.40923,-10.105654)" />
    <g
       id="g6386"
       transform="matrix(0.26458333,0,0,0.26458333,-250.40923,-10.105654)" />
    <g
       id="g6388"
       transform="matrix(0.26458333,0,0,0.26458333,-250.40923,-10.105654)" />
    <g
       id="g6390"
       transform="matrix(0.26458333,0,0,0.26458333,-250.40923,-10.105654)" />
    <g
       id="g6392"
       transform="matrix(0.26458333,0,0,0.26458333,-250.40923,-10.105654)" />
    <g
       id="g6394"
       transform="matrix(0.26458333,0,0,0.26458333,-250.40923,-10.105654)" />
    <g
       id="g6396"
       transform="matrix(0.26458333,0,0,0.26458333,-250.40923,-10.105654)" />
    <g
       id="g6500"
       transform="matrix(0.26458333,0,0,0.26458333,-135.01331,46.326059)" />
    <g
       id="g6502"
       transform="matrix(0.26458333,0,0,0.26458333,-135.01331,46.326059)" />
    <g
       id="g6504"
       transform="matrix(0.26458333,0,0,0.26458333,-135.01331,46.326059)" />
    <g
       id="g6506"
       transform="matrix(0.26458333,0,0,0.26458333,-135.01331,46.326059)" />
    <g
       id="g6508"
       transform="matrix(0.26458333,0,0,0.26458333,-135.01331,46.326059)" />
    <g
       id="g6510"
       transform="matrix(0.26458333,0,0,0.26458333,-135.01331,46.326059)" />
    <g
       id="g6512"
       transform="matrix(0.26458333,0,0,0.26458333,-135.01331,46.326059)" />
    <g
       id="g6514"
       transform="matrix(0.26458333,0,0,0.26458333,-135.01331,46.326059)" />
    <g
       id="g6516"
       transform="matrix(0.26458333,0,0,0.26458333,-135.01331,46.326059)" />
    <g
       id="g6518"
       transform="matrix(0.26458333,0,0,0.26458333,-135.01331,46.326059)" />
    <g
       id="g6520"
       transform="matrix(0.26458333,0,0,0.26458333,-135.01331,46.326059)" />
    <g
       id="g6522"
       transform="matrix(0.26458333,0,0,0.26458333,-135.01331,46.326059)" />
    <g
       id="g6524"
       transform="matrix(0.26458333,0,0,0.26458333,-135.01331,46.326059)" />
    <g
       id="g6526"
       transform="matrix(0.26458333,0,0,0.26458333,-135.01331,46.326059)" />
    <g
       id="g6528"
       transform="matrix(0.26458333,0,0,0.26458333,-135.01331,46.326059)" />
    <g
       id="g6631"
       transform="matrix(0.85179262,0,0,0.85179262,-781.84943,-259.29534)"
       inkscape:export-xdpi="99.733902"
       inkscape:export-ydpi="99.733902"
       style="stroke-width:1.17399466">
      <path
         id="path6182"
         d="m -250.92573,142.58413 h -62.08889 c -6.23425,0 -11.28889,5.05465 -11.28889,11.28889 v 5.64445 h 84.66667 v -5.64445 c 0,-6.23424 -5.05465,-11.28889 -11.28889,-11.28889 z m 0,0"
         inkscape:connector-curvature="0"
         style="fill:#3a434d;fill-opacity:1;stroke-width:0.41415924" />
      <path
         id="path6184"
         d="m -324.30351,294.98413 c 0,6.23425 5.05464,11.28889 11.28889,11.28889 h 62.08889 c 6.23424,0 11.28889,-5.05464 11.28889,-11.28889 v -11.28889 h -84.66667 z m 0,0"
         inkscape:connector-curvature="0"
         style="fill:#3a434d;fill-opacity:1;stroke-width:0.41415924" />
      <path
         id="path6186"
         d="m -324.30351,159.51747 h 84.66667 v 124.17777 h -84.66667 z m 0,0"
         inkscape:connector-curvature="0"
         style="fill:#00c3ff;fill-opacity:1;stroke-width:0.41415924" />
      <path
         id="path6192"
         d="m -284.7924,292.16191 h 5.64445 v 5.64445 h -5.64445 z m 0,0"
         inkscape:connector-curvature="0"
         style="fill:#00c3ff;fill-opacity:1;stroke-width:0.41415924" />
      <path
         id="path6194"
         d="m -221.07824,193.667 c 0,12.83664 -10.40607,23.24271 -23.24271,23.24271 -12.83663,0 -23.2427,-10.40607 -23.2427,-23.24271 0,-12.83663 10.40607,-23.2427 23.2427,-23.2427 6.17101,-0.0208 12.09518,2.42111 16.45886,6.78385 4.36273,4.36368 6.80466,10.28785 6.78385,16.45885 z m 0,0"
         inkscape:connector-curvature="0"
         style="fill:#dceeef;fill-opacity:1;stroke-width:0.41415924" />
      <g
         transform="rotate(-173.0214,-230.03171,255.88978)"
         id="g6354"
         style="stroke-width:1.17399466">
        <path
           style="fill:#60a25f;fill-opacity:0.96470588;stroke-width:0.41415924"
           inkscape:connector-curvature="0"
           d="m -128.81422,248.16548 46.235929,-40.79544 c 1.1231,-0.99081 2.56729,-1.53651 4.06522,-1.53789 3.39273,0 6.14329,2.75056 6.14329,6.14329 -10e-4,1.49793 -0.54708,2.94211 -1.53789,4.06521 l -40.795439,46.23594 z m 0,0"
           id="path6198" />
        <path
           style="fill:#dceeef;fill-opacity:1;stroke-width:0.41415924"
           inkscape:connector-curvature="0"
           d="m -127.30231,246.65358 c -9.35137,0 -16.93334,7.58197 -16.93334,16.93333 v 4.97886 c 0,3.86677 -2.18556,7.40282 -5.64444,9.13226 h 19.75555 c 9.35137,0 16.93334,-7.58197 16.93334,-16.93334 z m 0,0"
           id="path6200" />
      </g>
      <g
         style="stroke-width:0.83765233"
         transform="matrix(1.9642858,0,0,1,356.86889,9.827381)"
         id="g6343">
        <path
           style="fill:#87ced9;stroke-width:0.29550511"
           inkscape:connector-curvature="0"
           d="m -363.81462,153.87302 h 28.22222 v 22.57778 h -28.22222 z m 0,0"
           id="path6208" />
        <path
           style="fill:#5eb3d1;stroke-width:0.29550511"
           inkscape:connector-curvature="0"
           d="m -355.34795,162.33969 h 11.28889 v 5.64444 h -11.28889 z m 0,0"
           id="path6210" />
      </g>
      <g
         style="stroke-width:1.20731342"
         transform="matrix(-0.97240256,0,0,0.97240256,-432.48194,116.01062)"
         id="g6350">
        <path
           style="fill:#87ced9;stroke-width:0.42591333"
           inkscape:connector-curvature="0"
           d="m -234.59716,132.70635 h 62.08889 v 33.86667 h -62.08889 z m 0,0"
           id="path6218" />
        <g
           style="fill:#5eb3d1;stroke-width:1.20731342"
           id="g6226"
           transform="matrix(0.35277778,0,0,0.35277778,-333.55133,119.3512)">
          <path
             style="stroke-width:1.20731342"
             inkscape:connector-curvature="0"
             d="m 304.5,64 h 32 v 16 h -32 z m 0,0"
             id="path6220" />
          <path
             style="stroke-width:1.20731342"
             inkscape:connector-curvature="0"
             d="m 352.5,64 h 80 v 16 h -80 z m 0,0"
             id="path6222" />
          <path
             style="stroke-width:1.20731342"
             inkscape:connector-curvature="0"
             d="m 304.5,96 h 128 v 16 h -128 z m 0,0"
             id="path6224" />
        </g>
      </g>
      <path
         id="path6472"
         d="m -242.7793,200.28196 h -4.99886 c -3.7285,0 -6.76187,3.03337 -6.76187,6.76187 v 7.65724 c 0,0.30049 0.24361,0.5441 0.5441,0.5441 h 17.43434 c 0.30048,0 0.54409,-0.24361 0.54409,-0.5441 v -7.65724 c 7e-5,-3.7285 -3.0333,-6.76187 -6.7618,-6.76187 z"
         style="fill:#5c9cee;stroke-width:0.31061941"
         inkscape:connector-curvature="0" />
      <path
         id="path6476"
         d="m -244.45014,200.40889 h -1.80051 l -2.40537,8.17569 c -0.0516,0.17534 -0.005,0.36483 0.12322,0.49562 l 2.82081,2.88911 c 0.19825,0.20306 0.52485,0.20306 0.7231,0 l 2.82081,-2.88911 c 0.12768,-0.13079 0.17485,-0.32028 0.12322,-0.49562 z"
         style="fill:#3a434d;fill-opacity:1;stroke-width:0.31061941"
         inkscape:connector-curvature="0" />
      <path
         id="path6478"
         d="m -244.99756,182.1573 v 0 c -4.08762,0 -7.40133,3.31371 -7.40133,7.40133 v 3.56836 c 0,4.08769 3.31371,7.40133 7.40133,7.40133 v 0 c 4.08762,0 7.40133,-3.31371 7.40133,-7.40133 v -3.56836 c 0,-4.08762 -3.31371,-7.40133 -7.40133,-7.40133 z"
         style="fill:#f9c295;stroke-width:0.31061941"
         inkscape:connector-curvature="0" />
      <path
         id="path6480"
         d="m -244.99756,182.1573 c -0.16615,0 -0.33088,0.006 -0.49432,0.0168 3.37412,0.25442 6.04225,3.46305 6.04225,7.38451 v 3.56828 c 0,3.92154 -2.66805,7.13009 -6.04225,7.38452 0.16344,0.0108 0.32817,0.0168 0.49432,0.0168 4.08762,0 7.40133,-3.31371 7.40133,-7.40133 v -3.56828 c 0,-4.08761 -3.31371,-7.40133 -7.40133,-7.40133 z"
         style="fill:#e59f6a;stroke-width:0.31061941"
         inkscape:connector-curvature="0" />
      <path
         id="path6482"
         d="m -240.18199,183.94166 c 7e-5,-2.9e-4 1.4e-4,-4.5e-4 2.1e-4,-6.9e-4 -0.0137,-0.0117 -0.0279,-0.0226 -0.0417,-0.0342 -0.0567,-0.0479 -0.11393,-0.0952 -0.17207,-0.14136 -0.0265,-0.0211 -0.0533,-0.0417 -0.08,-0.0624 -0.0533,-0.0412 -0.10709,-0.0817 -0.16146,-0.12141 -0.0317,-0.0233 -0.0636,-0.0462 -0.0958,-0.0689 -0.0499,-0.0352 -0.10017,-0.0697 -0.15098,-0.10366 -0.0373,-0.025 -0.0746,-0.0499 -0.11235,-0.0742 -0.0455,-0.0293 -0.0916,-0.0578 -0.13786,-0.0861 -0.0438,-0.0269 -0.0874,-0.0537 -0.13168,-0.0797 -0.0391,-0.0229 -0.0787,-0.0447 -0.11827,-0.0669 -0.0521,-0.0293 -0.10402,-0.0586 -0.15689,-0.0866 -0.0272,-0.0144 -0.0549,-0.0279 -0.0823,-0.042 -1.01195,-0.52025 -2.1582,-0.81579 -3.37449,-0.81579 -4.08762,0 -7.40133,3.31371 -7.40133,7.40133 v 0.6842 c 1.08989,0.48086 2.29414,0.74983 3.56194,0.74983 2.60351,0 4.9426,-1.12745 6.55953,-2.91915 1.02242,1.57539 2.71857,2.67319 4.68119,2.88217 v -1.39727 c 0,-2.24805 -1.00347,-4.26012 -2.58577,-5.61698 z"
         style="fill:#3a434d;fill-opacity:1;stroke-width:0.31061941"
         inkscape:connector-curvature="0" />
      <path
         id="path6484"
         d="m -237.60721,189.15686 c -0.001,-0.0244 -0.003,-0.0487 -0.005,-0.073 -0.003,-0.0423 -0.005,-0.0847 -0.009,-0.12689 -0.002,-0.025 -0.005,-0.0497 -0.007,-0.0746 -0.003,-0.0416 -0.008,-0.0831 -0.0121,-0.12462 -0.003,-0.0244 -0.005,-0.0488 -0.008,-0.0732 -0.005,-0.0421 -0.0102,-0.0841 -0.0159,-0.12597 -0.003,-0.023 -0.006,-0.046 -0.01,-0.0689 -0.006,-0.0439 -0.0131,-0.0876 -0.0202,-0.13124 -0.003,-0.0205 -0.007,-0.041 -0.0102,-0.0614 -0.008,-0.0476 -0.0169,-0.095 -0.026,-0.14234 -0.003,-0.016 -0.006,-0.032 -0.009,-0.048 -0.011,-0.0554 -0.0227,-0.11051 -0.035,-0.16544 -0.002,-0.008 -0.003,-0.0153 -0.005,-0.0229 -0.3571,-1.57582 -1.21758,-2.96025 -2.40309,-3.97676 7e-5,-2.9e-4 1.4e-4,-4.4e-4 2.2e-4,-6.8e-4 -0.0137,-0.0117 -0.028,-0.0226 -0.0417,-0.0342 -0.0567,-0.048 -0.11393,-0.0952 -0.17207,-0.14136 -0.0265,-0.0211 -0.0533,-0.0417 -0.08,-0.0624 -0.0533,-0.0412 -0.10709,-0.0817 -0.16145,-0.12141 -0.0317,-0.0233 -0.0636,-0.0462 -0.0958,-0.0689 -0.0499,-0.0352 -0.10018,-0.0697 -0.15099,-0.10367 -0.0373,-0.025 -0.0746,-0.0499 -0.11235,-0.0742 -0.0455,-0.0293 -0.0916,-0.0578 -0.13787,-0.0862 -0.0438,-0.0269 -0.0874,-0.0537 -0.13166,-0.0797 -0.0391,-0.0228 -0.0787,-0.0447 -0.11828,-0.0669 -0.0521,-0.0293 -0.10402,-0.0586 -0.15689,-0.0866 -0.0273,-0.0143 -0.0549,-0.0279 -0.0823,-0.042 -0.75809,-0.38981 -1.59156,-0.65335 -2.47327,-0.76108 -0.004,-4.5e-4 -0.008,-6.9e-4 -0.0123,-0.001 -0.0634,-0.008 -0.12718,-0.0143 -0.19109,-0.0204 -0.017,-0.001 -0.034,-0.003 -0.0509,-0.005 -0.0519,-0.005 -0.10395,-0.008 -0.15617,-0.0118 -0.0216,-0.001 -0.0432,-0.003 -0.0649,-0.004 -0.0502,-0.003 -0.1006,-0.005 -0.15105,-0.007 -0.0211,-6.8e-4 -0.0421,-0.002 -0.0633,-0.002 -0.069,-0.002 -0.1383,-0.003 -0.20777,-0.003 -0.001,0 -0.002,-7e-5 -0.003,-7e-5 -0.0796,0 -0.15882,0.001 -0.23769,0.004 -0.009,3e-4 -0.0183,6.9e-4 -0.0274,6.9e-4 -0.0767,0.003 -0.15311,0.007 -0.22921,0.0116 3.37413,0.25443 6.04226,3.46305 6.04226,7.38451 v 0.90871 c 0.57846,0.25072 1.20111,0.41887 1.8534,0.48834 v -1.39774 c 0,-0.0674 -6.9e-4,-0.13452 -0.003,-0.20149 -4.4e-4,-0.0207 -0.002,-0.0414 -0.002,-0.0621 -0.002,-0.0461 -0.003,-0.0923 -0.006,-0.13815 z"
         style="fill:#2e344c;stroke-width:0.31061941"
         inkscape:connector-curvature="0" />
      <path
         id="path6214"
         d="m -214.36829,191.73011 h -5.90904 c -0.9656,-12.35998 -10.78436,-22.17874 -23.14434,-23.14434 v -5.90904 h -3.87378 v 5.90904 c -12.35998,0.9656 -22.17874,10.78436 -23.14435,23.14434 h -5.90903 v 3.87378 h 5.91376 c 0.91359,12.38363 10.75599,22.23265 23.13962,23.15381 v 5.89957 h 3.87378 v -5.89957 c 12.38363,-0.92116 22.22602,-10.77018 23.13961,-23.15381 h 5.91377 z m -16.78703,17.81978 c -3.40658,3.05477 -7.70879,4.92546 -12.26635,5.33402 v -3.78488 h -3.87378 v 3.78488 c -10.24151,-0.91832 -18.35508,-9.03851 -19.26584,-19.28002 h 3.7707 v -3.87378 h -3.77543 c 0.9467,-10.22543 9.04514,-18.32386 19.27057,-19.27056 v 3.77543 h 3.87378 v -3.77543 c 10.22543,0.9467 18.32386,9.04513 19.27056,19.27056 h -3.77543 v 3.87378 h 3.7707 c -0.48422,5.36996 -2.98573,10.35595 -6.99948,13.95546 z m 0,0"
         inkscape:connector-curvature="0"
         style="fill:#5fa25f;fill-opacity:0.96470588;stroke-width:0.41415924" />
    </g>
    <g
       style="stroke-width:0.07620888"
       id="g6737"
       transform="matrix(3.4718177,0,0,3.4718177,-603.43358,56.125021)" />
    <g
       style="stroke-width:0.07620888"
       id="g6739"
       transform="matrix(3.4718177,0,0,3.4718177,-603.43358,56.125021)" />
    <g
       style="stroke-width:0.07620888"
       id="g6741"
       transform="matrix(3.4718177,0,0,3.4718177,-603.43358,56.125021)" />
    <g
       style="stroke-width:0.07620888"
       id="g6743"
       transform="matrix(3.4718177,0,0,3.4718177,-603.43358,56.125021)" />
    <g
       style="stroke-width:0.07620888"
       id="g6745"
       transform="matrix(3.4718177,0,0,3.4718177,-603.43358,56.125021)" />
    <g
       style="stroke-width:0.07620888"
       id="g6747"
       transform="matrix(3.4718177,0,0,3.4718177,-603.43358,56.125021)" />
    <g
       style="stroke-width:0.07620888"
       id="g6749"
       transform="matrix(3.4718177,0,0,3.4718177,-603.43358,56.125021)" />
    <g
       style="stroke-width:0.07620888"
       id="g6751"
       transform="matrix(3.4718177,0,0,3.4718177,-603.43358,56.125021)" />
    <g
       style="stroke-width:0.07620888"
       id="g6753"
       transform="matrix(3.4718177,0,0,3.4718177,-603.43358,56.125021)" />
    <g
       style="stroke-width:0.07620888"
       id="g6755"
       transform="matrix(3.4718177,0,0,3.4718177,-603.43358,56.125021)" />
    <g
       style="stroke-width:0.07620888"
       id="g6757"
       transform="matrix(3.4718177,0,0,3.4718177,-603.43358,56.125021)" />
    <g
       style="stroke-width:0.07620888"
       id="g6759"
       transform="matrix(3.4718177,0,0,3.4718177,-603.43358,56.125021)" />
    <g
       style="stroke-width:0.07620888"
       id="g6761"
       transform="matrix(3.4718177,0,0,3.4718177,-603.43358,56.125021)" />
    <g
       style="stroke-width:0.07620888"
       id="g6763"
       transform="matrix(3.4718177,0,0,3.4718177,-603.43358,56.125021)" />
    <g
       style="stroke-width:0.07620888"
       id="g6765"
       transform="matrix(3.4718177,0,0,3.4718177,-603.43358,56.125021)" />
    <g
       id="g4814"
       transform="translate(-658.55212,-177.46697)">
      <path
         id="path4675"
         d="m -615.98372,248.6739 v 0 c -2.11459,-12.90738 -32.3234,-23.14187 -69.29543,-23.14187 -36.97204,0 -67.18085,10.23449 -69.29544,23.14187 v 0 h -0.13017 v 1.44637 33.26644 1.44636 1.44637 31.82007 1.44637 1.44636 34.71281 h 0.13017 c 2.11459,12.90448 32.3263,23.14187 69.29544,23.14187 36.96913,0 67.18084,-10.23739 69.29543,-23.14187 h 0.13017 v -34.71281 -1.44636 -1.44637 -31.82007 -1.44637 -1.44636 -33.26644 -1.44637 z"
         style="fill:#424a60;stroke-width:0.26458335"
         inkscape:connector-curvature="0" />
      <g
         transform="matrix(2.8927337,0,0,2.8927337,-761.93659,225.53203)"
         id="g4683"
         style="stroke-width:0.09146481">
        <path
           id="path4677"
           d="M 26.5,41 C 13.245,41 2.5,37.194 2.5,32.5 V 45 h 0.045 c 0.731,4.461 11.175,8 23.955,8 12.78,0 23.224,-3.539 23.955,-8 H 50.5 V 32.5 c 0,4.694 -10.745,8.5 -24,8.5 z"
           style="fill:#424a60;stroke-width:0.09146481"
           inkscape:connector-curvature="0" />
        <path
           id="path4679"
           d="m 2.5,32 v 0.5 c 0,-0.168 0.018,-0.334 0.045,-0.5 z"
           style="fill:#424a60;stroke-width:0.09146481"
           inkscape:connector-curvature="0" />
        <path
           id="path4681"
           d="m 50.455,32 c 0.027,0.166 0.045,0.332 0.045,0.5 V 32 Z"
           style="fill:#424a60;stroke-width:0.09146481"
           inkscape:connector-curvature="0" />
      </g>
      <g
         transform="matrix(2.8927337,0,0,2.8927337,-761.93659,225.53203)"
         id="g4691"
         style="stroke-width:0.09146481">
        <path
           id="path4685"
           d="M 26.5,29 C 13.245,29 2.5,25.194 2.5,20.5 V 33 h 0.045 c 0.731,4.461 11.175,8 23.955,8 12.78,0 23.224,-3.539 23.955,-8 H 50.5 V 20.5 c 0,4.694 -10.745,8.5 -24,8.5 z"
           style="fill:#556080;stroke-width:0.09146481"
           inkscape:connector-curvature="0" />
        <path
           id="path4687"
           d="m 2.5,20 v 0.5 c 0,-0.168 0.018,-0.334 0.045,-0.5 z"
           style="fill:#556080;stroke-width:0.09146481"
           inkscape:connector-curvature="0" />
        <path
           id="path4689"
           d="m 50.455,20 c 0.027,0.166 0.045,0.332 0.045,0.5 V 20 Z"
           style="fill:#556080;stroke-width:0.09146481"
           inkscape:connector-curvature="0" />
      </g>
      <ellipse
         id="ellipse4693"
         ry="24.588236"
         rx="69.425606"
         cy="250.12025"
         cx="-685.27911"
         style="fill:#b3b3b3;stroke-width:0.26458335" />
      <g
         transform="matrix(2.8927337,0,0,2.8927337,-761.93659,225.53203)"
         id="g4701"
         style="fill:#424a60;fill-opacity:1;stroke-width:0.09146481">
        <path
           id="path4695"
           d="M 26.5,17 C 13.245,17 2.5,13.194 2.5,8.5 V 21 h 0.045 c 0.731,4.461 11.175,8 23.955,8 12.78,0 23.224,-3.539 23.955,-8 H 50.5 V 8.5 c 0,4.694 -10.745,8.5 -24,8.5 z"
           style="fill:#424a60;fill-opacity:1;stroke-width:0.09146481"
           inkscape:connector-curvature="0" />
        <path
           id="path4697"
           d="M 2.5,8 V 8.5 C 2.5,8.332 2.518,8.166 2.545,8 Z"
           style="fill:#424a60;fill-opacity:1;stroke-width:0.09146481"
           inkscape:connector-curvature="0" />
        <path
           id="path4699"
           d="M 50.455,8 C 50.482,8.166 50.5,8.332 50.5,8.5 V 8 Z"
           style="fill:#424a60;fill-opacity:1;stroke-width:0.09146481"
           inkscape:connector-curvature="0" />
      </g>
    </g>
    <g
       style="stroke-width:0.03000761"
       id="g4703"
       transform="matrix(8.8172082,0,0,8.8172082,-674.11628,148.87022)" />
    <g
       style="stroke-width:0.03000761"
       id="g4705"
       transform="matrix(8.8172082,0,0,8.8172082,-674.11628,148.87022)" />
    <g
       style="stroke-width:0.03000761"
       id="g4707"
       transform="matrix(8.8172082,0,0,8.8172082,-674.11628,148.87022)" />
    <g
       style="stroke-width:0.03000761"
       id="g4709"
       transform="matrix(8.8172082,0,0,8.8172082,-674.11628,148.87022)" />
    <g
       style="stroke-width:0.03000761"
       id="g4711"
       transform="matrix(8.8172082,0,0,8.8172082,-674.11628,148.87022)" />
    <g
       style="stroke-width:0.03000761"
       id="g4713"
       transform="matrix(8.8172082,0,0,8.8172082,-674.11628,148.87022)" />
    <g
       style="stroke-width:0.03000761"
       id="g4715"
       transform="matrix(8.8172082,0,0,8.8172082,-674.11628,148.87022)" />
    <g
       style="stroke-width:0.03000761"
       id="g4717"
       transform="matrix(8.8172082,0,0,8.8172082,-674.11628,148.87022)" />
    <g
       style="stroke-width:0.03000761"
       id="g4719"
       transform="matrix(8.8172082,0,0,8.8172082,-674.11628,148.87022)" />
    <g
       style="stroke-width:0.03000761"
       id="g4721"
       transform="matrix(8.8172082,0,0,8.8172082,-674.11628,148.87022)" />
    <g
       style="stroke-width:0.03000761"
       id="g4723"
       transform="matrix(8.8172082,0,0,8.8172082,-674.11628,148.87022)" />
    <g
       style="stroke-width:0.03000761"
       id="g4725"
       transform="matrix(8.8172082,0,0,8.8172082,-674.11628,148.87022)" />
    <g
       style="stroke-width:0.03000761"
       id="g4727"
       transform="matrix(8.8172082,0,0,8.8172082,-674.11628,148.87022)" />
    <g
       style="stroke-width:0.03000761"
       id="g4729"
       transform="matrix(8.8172082,0,0,8.8172082,-674.11628,148.87022)" />
    <g
       style="stroke-width:0.03000761"
       id="g4731"
       transform="matrix(8.8172082,0,0,8.8172082,-674.11628,148.87022)" />
  </g>
</svg>
