<?xml version="1.0" encoding="UTF-8" standalone="no"?>
<!-- Created with Inkscape (http://www.inkscape.org/) -->

<svg
   xmlns:dc="http://purl.org/dc/elements/1.1/"
   xmlns:cc="http://creativecommons.org/ns#"
   xmlns:rdf="http://www.w3.org/1999/02/22-rdf-syntax-ns#"
   xmlns:svg="http://www.w3.org/2000/svg"
   xmlns="http://www.w3.org/2000/svg"
   xmlns:sodipodi="http://sodipodi.sourceforge.net/DTD/sodipodi-0.dtd"
   xmlns:inkscape="http://www.inkscape.org/namespaces/inkscape"
   width="247.04942mm"
   height="247.04942mm"
   viewBox="0 0 247.04942 247.04942"
   version="1.1"
   id="svg8"
   inkscape:version="0.92.1 r15371"
   sodipodi:docname="monitor.svg">
  <defs
     id="defs2">
    <clipPath
       clipPathUnits="userSpaceOnUse"
       id="clipPath4797">
      <rect
         style="opacity:1;vector-effect:none;fill:none;fill-opacity:1;fill-rule:evenodd;stroke:#ff0000;stroke-width:0.09999999;stroke-linecap:butt;stroke-linejoin:miter;stroke-miterlimit:4;stroke-dasharray:none;stroke-dashoffset:0;stroke-opacity:1"
         id="rect4799"
         width="95.25"
         height="71.059525"
         x="-422.57736"
         y="255.42262" />
    </clipPath>
    <clipPath
       id="clipPath4797-0"
       clipPathUnits="userSpaceOnUse">
      <rect
         y="255.42262"
         x="-422.57736"
         height="71.059525"
         width="95.25"
         id="rect4799-0"
         style="opacity:1;vector-effect:none;fill:none;fill-opacity:1;fill-rule:evenodd;stroke:#ff0000;stroke-width:0.09999999;stroke-linecap:butt;stroke-linejoin:miter;stroke-miterlimit:4;stroke-dasharray:none;stroke-dashoffset:0;stroke-opacity:1" />
    </clipPath>
    <filter
       height="1.2424001"
       y="-0.1212"
       width="1.2424001"
       x="-0.1212"
       id="filter4900"
       style="color-interpolation-filters:sRGB"
       inkscape:collect="always">
      <feGaussianBlur
         id="feGaussianBlur4902"
         stdDeviation="10.041851"
         inkscape:collect="always" />
    </filter>
  </defs>
  <sodipodi:namedview
     id="base"
     pagecolor="#ffffff"
     bordercolor="#666666"
     borderopacity="1.0"
     inkscape:pageopacity="0.0"
     inkscape:pageshadow="2"
     inkscape:zoom="0.175"
     inkscape:cx="79.468814"
     inkscape:cy="308.4888"
     inkscape:document-units="mm"
     inkscape:current-layer="layer1"
     showgrid="false"
     fit-margin-top="0"
     fit-margin-left="0"
     fit-margin-right="0"
     fit-margin-bottom="0"
     inkscape:window-width="1920"
     inkscape:window-height="1017"
     inkscape:window-x="1358"
     inkscape:window-y="-8"
     inkscape:window-maximized="1" />
  <metadata
     id="metadata5">
    <rdf:RDF>
      <cc:Work
         rdf:about="">
        <dc:format>image/svg+xml</dc:format>
        <dc:type
           rdf:resource="http://purl.org/dc/dcmitype/StillImage" />
        <dc:title></dc:title>
      </cc:Work>
    </rdf:RDF>
  </metadata>
  <g
     inkscape:label="Layer 1"
     inkscape:groupmode="layer"
     id="layer1"
     transform="translate(41.058862,-13.643004)">
    <circle
       style="opacity:0.119;fill:#1b0f3f;fill-opacity:1;fill-rule:evenodd;stroke:#feffff;stroke-width:3.5;stroke-linecap:round;stroke-linejoin:miter;stroke-miterlimit:3.9000001;stroke-dasharray:none;stroke-dashoffset:0;stroke-opacity:1;paint-order:fill markers stroke;filter:url(#filter4900)"
       id="path4816"
       cx="82.465843"
       cy="137.16771"
       r="99.424263" />
    <g
       id="g4706"
       transform="matrix(0.26458333,0,0,0.26458333,911.7868,190.74592)" />
    <g
       id="g4708"
       transform="matrix(0.26458333,0,0,0.26458333,911.7868,190.74592)" />
    <g
       id="g4710"
       transform="matrix(0.26458333,0,0,0.26458333,911.7868,190.74592)" />
    <g
       id="g4712"
       transform="matrix(0.26458333,0,0,0.26458333,911.7868,190.74592)" />
    <g
       id="g4714"
       transform="matrix(0.26458333,0,0,0.26458333,911.7868,190.74592)" />
    <g
       id="g4716"
       transform="matrix(0.26458333,0,0,0.26458333,911.7868,190.74592)" />
    <g
       id="g4718"
       transform="matrix(0.26458333,0,0,0.26458333,911.7868,190.74592)" />
    <g
       id="g4720"
       transform="matrix(0.26458333,0,0,0.26458333,911.7868,190.74592)" />
    <g
       id="g4722"
       transform="matrix(0.26458333,0,0,0.26458333,911.7868,190.74592)" />
    <g
       id="g4724"
       transform="matrix(0.26458333,0,0,0.26458333,911.7868,190.74592)" />
    <g
       id="g4726"
       transform="matrix(0.26458333,0,0,0.26458333,911.7868,190.74592)" />
    <g
       id="g4728"
       transform="matrix(0.26458333,0,0,0.26458333,911.7868,190.74592)" />
    <g
       id="g4730"
       transform="matrix(0.26458333,0,0,0.26458333,911.7868,190.74592)" />
    <g
       id="g4732"
       transform="matrix(0.26458333,0,0,0.26458333,911.7868,190.74592)" />
    <g
       id="g4734"
       transform="matrix(0.26458333,0,0,0.26458333,911.7868,190.74592)" />
    <g
       id="g5195"
       transform="matrix(0.72495091,0,0,0.72495091,218.15619,14.699774)"
       style="stroke-width:1.37940371">
      <path
         inkscape:export-ydpi="99.733902"
         inkscape:export-xdpi="99.733902"
         id="path4485"
         d="m -204.43977,230.5813 h 38.34908 v 21.2044 h -38.34908 z m 0,0"
         inkscape:connector-curvature="0"
         style="fill:#61a260;fill-opacity:0.96470588;stroke-width:0.48662302" />
      <path
         inkscape:export-ydpi="99.733902"
         inkscape:export-xdpi="99.733902"
         id="path4489"
         d="m -147.98519,257.01228 h -74.56008 c -1.95274,0 -3.53628,-1.58354 -3.53628,-3.53629 0,-1.95274 1.58354,-3.5348 3.53628,-3.5348 h 74.56008 c 1.95274,0 3.53481,1.58206 3.53481,3.5348 0,1.95275 -1.58207,3.53629 -3.53481,3.53629 z m 0,0"
         inkscape:connector-curvature="0"
         style="fill:#3a434d;fill-opacity:1;stroke-width:0.48662302" />
      <path
         inkscape:export-ydpi="99.733902"
         inkscape:export-xdpi="99.733902"
         id="path4491"
         d="m -88.093654,101.77885 v 125.9408 c 0,2.20481 -1.786677,3.98852 -3.992965,3.98852 H -278.44383 c -2.20628,0 -3.99297,-1.78371 -3.99297,-3.98852 v -125.9408 c 0,-3.303489 2.68224,-5.982771 5.98723,-5.982771 h 182.36869 c 3.307953,0 5.987226,2.679282 5.987226,5.982771 z m 0,0"
         inkscape:connector-curvature="0"
         style="fill:#dceeef;stroke-width:0.48662302" />
      <path
         inkscape:export-ydpi="99.733902"
         inkscape:export-xdpi="99.733902"
         id="path4493"
         d="m -281.67765,101.77885 v 125.93932 c 0,2.20777 1.97807,3.99 4.4174,3.99 h 9.61289 c -2.43933,0 -4.4174,-1.78223 -4.4174,-3.99 V 101.77885 c 0,-3.302015 2.96628,-5.981286 6.62692,-5.981286 h -9.61289 c -3.66064,0 -6.62692,2.679271 -6.62692,5.981286 z m 0,0"
         inkscape:connector-curvature="0"
         style="fill:#bcdde2;stroke-width:0.48662302" />
      <path
         inkscape:export-ydpi="99.733902"
         inkscape:export-xdpi="99.733902"
         id="path4503"
         d="m -88.093654,101.77885 v 8.54047 H -282.4368 v -8.54047 c 0,-3.303489 2.68224,-5.982771 5.98723,-5.982771 h 182.36869 c 3.307953,0 5.987226,2.679282 5.987226,5.982771 z m 0,0"
         inkscape:connector-curvature="0"
         style="fill:#34404c;fill-opacity:1;stroke-width:0.48662302" />
      <path
         inkscape:export-ydpi="99.733902"
         inkscape:export-xdpi="99.733902"
         id="path4505"
         d="m -88.093654,212.57218 v 15.14599 c 0,2.20777 -1.786677,3.99 -3.990001,3.99 H -278.4468 c -2.20331,0 -3.99,-1.78223 -3.99,-3.99 v -15.14599 z m 0,0"
         inkscape:connector-curvature="0"
         style="fill:#333d47;fill-opacity:0.96078431;stroke-width:0.48662302" />
      <path
         inkscape:export-ydpi="99.733902"
         inkscape:export-xdpi="99.733902"
         id="path4507"
         d="m -88.093654,212.57218 v 15.14599 c 0,2.20777 -1.786677,3.99 -3.990001,3.99 h -8.682815 c 2.203329,0 3.990006,-1.78223 3.990006,-3.99 v -15.14599 z m 0,0"
         inkscape:connector-curvature="0"
         style="fill:#000000;fill-opacity:0;stroke-width:0.48662302" />
      <path
         inkscape:export-ydpi="99.733902"
         inkscape:export-xdpi="99.733902"
         transform="matrix(1.3927019,0,0,1.3927019,315.03465,-243.74687)"
         clip-path="url(#clipPath4797-0)"
         id="path4692"
         d="m -360.46636,243.94187 -2.79638,8.7122 c -0.67681,2.10847 -2.37226,3.73274 -4.50797,4.31827 l -7.01464,1.92325 c -0.56462,0.15478 -1.14776,0.23337 -1.73328,0.23337 h -10.49655 c -1.09511,0 -2.02089,0.81068 -2.16562,1.896 l -1.20385,9.02864 -6.70454,0.3511 c -1.12739,0.059 -2.02407,0.96706 -2.06904,2.09497 l -0.23204,5.82692 c -0.0524,1.31207 1.05621,2.37358 2.36458,2.26457 l 4.46669,-0.37227 c 1.14829,-0.0958 2.1971,-0.69056 2.86861,-1.62692 l 4.13094,-5.76157 8.83524,-0.31564 c 1.88965,-0.0675 3.22474,1.83382 2.53867,3.59595 -1.53961,3.95367 -1.54172,4.29233 -1.54172,4.63999 0,1.20783 0.97737,2.18493 2.18492,2.18493 1.07977,0 1.97803,-0.78528 2.15292,-1.81371 0.14922,-0.50351 0.8165,-2.24923 1.69016,-4.46538 0.36486,-0.92551 1.62189,-1.06177 2.17011,-0.23151 l 0.56489,0.85487 c 1.04431,1.58089 2.98873,2.30849 4.81435,1.80181 l 3.90155,-1.08267 c 1.08744,-0.30163 1.96559,-1.10437 2.36352,-2.16032 l 0.74824,-1.98544 c 0.52838,-1.40202 1.73832,-2.43549 3.2057,-2.73844 l 2.52147,-0.52043 c 1.71583,-0.35401 3.5351,0.68342 3.83382,2.40982 0.30506,1.76372 -0.93425,3.36603 -2.65589,3.56341 l -6.07986,0.16325 c -1.2364,0.0333 -2.22964,1.02949 -2.25901,2.26616 l -0.0138,0.58208 c -0.0111,0.46752 0.24685,0.90011 0.66331,1.11257 l 3.4962,1.78382 c 1.33086,0.67892 1.76451,2.3712 0.92446,3.6068 v 0 c -0.46223,0.67972 -1.23058,1.08638 -2.05264,1.08638 h -18.43961 c -0.4826,0 -0.96096,-0.0907 -1.40996,-0.26776 l -15.47336,-6.09547 c -1.14512,-0.45111 -2.44713,-0.2069 -3.35095,0.62839 l -14.65421,13.54402 c -1.16814,1.07976 -1.65735,2.70907 -1.27715,4.25371 l 2.97948,12.10389 c 0.45984,1.86822 2.08756,3.21575 4.0087,3.3192 l 16.50947,0.88767 c 3.24829,0.17463 5.87692,2.7051 6.17537,5.94413 l 1.25228,13.59615 c 0.0937,1.01706 0.36168,1.99787 0.80327,2.91915 1.39118,2.90221 4.63471,9.49907 6.43784,11.77951 2.32146,2.93608 8.04095,3.0525 9.96871,1.29725 l 13.42337,-10.98418 c 1.12183,-1.02129 1.85446,-2.40003 2.07354,-3.90128 l 1.57268,-10.78759 10.65927,-11.74697 c 1.03823,-1.14459 0.57203,-2.89957 -0.7493,-3.46657 l -0.19103,0.12806 c -0.80856,0.54187 -1.74122,0.87048 -2.70563,0.95594 -0.17065,0.0148 -0.34131,0.0236 -0.51197,0.0236 -1.9759,0 -3.80867,-1.00277 -4.87336,-2.69717 l -8.13805,-12.92198 c -0.64214,-1.02209 -0.33496,-2.37067 0.68501,-3.01493 1.02843,-0.63791 2.37066,-0.33284 3.01492,0.68501 l 8.13806,12.9241 c 0.2794,0.4482 0.77443,0.69136 1.3036,0.64876 0.23257,-0.0214 0.4609,-0.1024 0.65722,-0.23257 l 11.00006,-6.02827 c 1.14644,-0.62838 1.45018,-2.1381 0.63553,-3.16071 v 0 c -0.45297,-0.56859 -1.16682,-0.8636 -1.88887,-0.78079 l -2.3106,0.26565 c -0.62071,0.0714 -1.24222,-0.12621 -1.70789,-0.54266 l -6.91885,-6.18914 c -0.89826,-0.80433 -0.97499,-2.18493 -0.17066,-3.0853 0.80222,-0.90038 2.18282,-0.97499 3.08531,-0.17066 l 6.18781,5.53482 3.75973,-0.43312 c 0.77893,-0.096 1.55125,0.24526 2.01427,0.88132 l 0.72337,0.99007 3.66448,-0.43973 c 1.78091,-0.21379 3.51129,0.68236 4.36457,2.26007 l 7.39986,13.6824 c 0.53684,0.99271 1.43696,1.73937 2.51196,2.08306 l 2.66197,0.93504 c 0.008,-0.43022 0.0325,-0.85672 0.0325,-1.28879 0,-34.739 -26.15671,-63.35262 -59.84637,-67.26211 z m 28.2948,37.38933 c -0.37332,0.254 -0.8001,0.37544 -1.22052,0.37544 -0.70194,0 -1.39118,-0.33707 -1.8116,-0.96229 l -4.55136,-6.73629 c -0.67628,-0.99853 -0.41408,-2.3577 0.58684,-3.03212 0.99642,-0.67866 2.35982,-0.41169 3.03213,0.58684 l 4.55136,6.7363 c 0.67627,0.99853 0.41381,2.3577 -0.58685,3.03212 z"
         style="fill:#bee86e;stroke-width:0.26205698"
         inkscape:connector-curvature="0" />
      <rect
         inkscape:export-ydpi="99.733902"
         inkscape:export-xdpi="99.733902"
         y="110.23974"
         x="-140.25757"
         height="102.33244"
         width="51.876347"
         id="rect4801"
         style="opacity:1;vector-effect:none;fill:#00c3ff;fill-opacity:1;fill-rule:evenodd;stroke:none;stroke-width:0.13794035;stroke-linecap:butt;stroke-linejoin:miter;stroke-miterlimit:4;stroke-dasharray:none;stroke-dashoffset:0;stroke-opacity:1" />
      <path
         inkscape:export-ydpi="99.733902"
         inkscape:export-xdpi="99.733902"
         id="path4487"
         d="m -137.09428,198.93935 h 32.59467 v 2.57358 h -32.59467 z m 0,0"
         inkscape:connector-curvature="0"
         style="fill:#34404c;fill-opacity:1;stroke-width:0.48662302" />
      <path
         inkscape:export-ydpi="99.733902"
         inkscape:export-xdpi="99.733902"
         id="path4487-7"
         d="m -136.85457,188.02616 h 32.59466 v 2.57358 h -32.59466 z m 0,0"
         inkscape:connector-curvature="0"
         style="fill:#34404c;fill-opacity:1;stroke-width:0.48662302" />
      <path
         inkscape:export-ydpi="99.733902"
         inkscape:export-xdpi="99.733902"
         id="path4487-2"
         d="m -137.09428,119.59314 h 32.59465 v 2.57358 h -32.59465 z m 0,0"
         inkscape:connector-curvature="0"
         style="fill:#34404c;fill-opacity:1;stroke-width:0.48662302" />
      <path
         inkscape:export-ydpi="99.733902"
         inkscape:export-xdpi="99.733902"
         id="path4487-9"
         d="m -137.28755,128.50788 h 32.59466 v 2.57358 h -32.59466 z m 0,0"
         inkscape:connector-curvature="0"
         style="fill:#34404c;fill-opacity:1;stroke-width:0.48662302" />
      <path
         inkscape:export-ydpi="99.733902"
         inkscape:export-xdpi="99.733902"
         id="path4487-93"
         d="m -137.09428,157.26513 h 44.672723 v 2.57359 h -44.672723 z m 0,0"
         inkscape:connector-curvature="0"
         style="fill:#34404c;fill-opacity:1;stroke-width:0.48662302" />
      <path
         inkscape:export-ydpi="99.733902"
         inkscape:export-xdpi="99.733902"
         id="path4487-73"
         d="m -137.09428,144.61194 h 8.43857 v 2.57358 h -8.43857 z m 0,0"
         inkscape:connector-curvature="0"
         style="fill:#34404c;fill-opacity:1;stroke-width:0.48662302" />
      <path
         inkscape:export-ydpi="99.733902"
         inkscape:export-xdpi="99.733902"
         id="path4487-1"
         d="m -136.81635,170.58443 h 6.13798 v 2.57358 h -6.13798 z m 0,0"
         inkscape:connector-curvature="0"
         style="fill:#34404c;fill-opacity:1;stroke-width:0.48662302" />
    </g>
    <g
       style="stroke-width:0.40322241"
       id="g4952"
       transform="matrix(0.6561722,0,0,0.6561722,1013.656,113.14869)" />
    <g
       style="stroke-width:0.40322241"
       id="g4954"
       transform="matrix(0.6561722,0,0,0.6561722,1013.656,113.14869)" />
    <g
       style="stroke-width:0.40322241"
       id="g4956"
       transform="matrix(0.6561722,0,0,0.6561722,1013.656,113.14869)" />
    <g
       style="stroke-width:0.40322241"
       id="g4958"
       transform="matrix(0.6561722,0,0,0.6561722,1013.656,113.14869)" />
    <g
       style="stroke-width:0.40322241"
       id="g4960"
       transform="matrix(0.6561722,0,0,0.6561722,1013.656,113.14869)" />
    <g
       style="stroke-width:0.40322241"
       id="g4962"
       transform="matrix(0.6561722,0,0,0.6561722,1013.656,113.14869)" />
    <g
       style="stroke-width:0.40322241"
       id="g4964"
       transform="matrix(0.6561722,0,0,0.6561722,1013.656,113.14869)" />
    <g
       style="stroke-width:0.40322241"
       id="g4966"
       transform="matrix(0.6561722,0,0,0.6561722,1013.656,113.14869)" />
    <g
       style="stroke-width:0.40322241"
       id="g4968"
       transform="matrix(0.6561722,0,0,0.6561722,1013.656,113.14869)" />
    <g
       style="stroke-width:0.40322241"
       id="g4970"
       transform="matrix(0.6561722,0,0,0.6561722,1013.656,113.14869)" />
    <g
       style="stroke-width:0.40322241"
       id="g4972"
       transform="matrix(0.6561722,0,0,0.6561722,1013.656,113.14869)" />
    <g
       style="stroke-width:0.40322241"
       id="g4974"
       transform="matrix(0.6561722,0,0,0.6561722,1013.656,113.14869)" />
    <g
       style="stroke-width:0.40322241"
       id="g4976"
       transform="matrix(0.6561722,0,0,0.6561722,1013.656,113.14869)" />
    <g
       style="stroke-width:0.40322241"
       id="g4978"
       transform="matrix(0.6561722,0,0,0.6561722,1013.656,113.14869)" />
    <g
       style="stroke-width:0.40322241"
       id="g4980"
       transform="matrix(0.6561722,0,0,0.6561722,1013.656,113.14869)" />
    <g
       id="g5364"
       transform="matrix(0.26458333,0,0,0.26458333,812.55842,167.82386)" />
    <g
       id="g5366"
       transform="matrix(0.26458333,0,0,0.26458333,812.55842,167.82386)" />
    <g
       id="g5368"
       transform="matrix(0.26458333,0,0,0.26458333,812.55842,167.82386)" />
    <g
       id="g5370"
       transform="matrix(0.26458333,0,0,0.26458333,812.55842,167.82386)" />
    <g
       id="g5372"
       transform="matrix(0.26458333,0,0,0.26458333,812.55842,167.82386)" />
    <g
       id="g5374"
       transform="matrix(0.26458333,0,0,0.26458333,812.55842,167.82386)" />
    <g
       id="g5376"
       transform="matrix(0.26458333,0,0,0.26458333,812.55842,167.82386)" />
    <g
       id="g5378"
       transform="matrix(0.26458333,0,0,0.26458333,812.55842,167.82386)" />
    <g
       id="g5380"
       transform="matrix(0.26458333,0,0,0.26458333,812.55842,167.82386)" />
    <g
       id="g5382"
       transform="matrix(0.26458333,0,0,0.26458333,812.55842,167.82386)" />
    <g
       id="g5384"
       transform="matrix(0.26458333,0,0,0.26458333,812.55842,167.82386)" />
    <g
       id="g5386"
       transform="matrix(0.26458333,0,0,0.26458333,812.55842,167.82386)" />
    <g
       id="g5388"
       transform="matrix(0.26458333,0,0,0.26458333,812.55842,167.82386)" />
    <g
       id="g5390"
       transform="matrix(0.26458333,0,0,0.26458333,812.55842,167.82386)" />
    <g
       id="g5392"
       transform="matrix(0.26458333,0,0,0.26458333,812.55842,167.82386)" />
    <g
       id="g5475"
       transform="matrix(0.26458333,0,0,0.26458333,476.44338,54.418719)" />
    <g
       id="g5477"
       transform="matrix(0.26458333,0,0,0.26458333,476.44338,54.418719)" />
    <g
       id="g5479"
       transform="matrix(0.26458333,0,0,0.26458333,476.44338,54.418719)" />
    <g
       id="g5481"
       transform="matrix(0.26458333,0,0,0.26458333,476.44338,54.418719)" />
    <g
       id="g5483"
       transform="matrix(0.26458333,0,0,0.26458333,476.44338,54.418719)" />
    <g
       id="g5485"
       transform="matrix(0.26458333,0,0,0.26458333,476.44338,54.418719)" />
    <g
       id="g5487"
       transform="matrix(0.26458333,0,0,0.26458333,476.44338,54.418719)" />
    <g
       id="g5489"
       transform="matrix(0.26458333,0,0,0.26458333,476.44338,54.418719)" />
    <g
       id="g5491"
       transform="matrix(0.26458333,0,0,0.26458333,476.44338,54.418719)" />
    <g
       id="g5493"
       transform="matrix(0.26458333,0,0,0.26458333,476.44338,54.418719)" />
    <g
       id="g5495"
       transform="matrix(0.26458333,0,0,0.26458333,476.44338,54.418719)" />
    <g
       id="g5497"
       transform="matrix(0.26458333,0,0,0.26458333,476.44338,54.418719)" />
    <g
       id="g5499"
       transform="matrix(0.26458333,0,0,0.26458333,476.44338,54.418719)" />
    <g
       id="g5501"
       transform="matrix(0.26458333,0,0,0.26458333,476.44338,54.418719)" />
    <g
       id="g5503"
       transform="matrix(0.26458333,0,0,0.26458333,476.44338,54.418719)" />
    <g
       id="g5949"
       transform="matrix(0.26458333,0,0,0.26458333,848.5981,32.262011)" />
    <g
       id="g5951"
       transform="matrix(0.26458333,0,0,0.26458333,848.5981,32.262011)" />
    <g
       id="g5953"
       transform="matrix(0.26458333,0,0,0.26458333,848.5981,32.262011)" />
    <g
       id="g5955"
       transform="matrix(0.26458333,0,0,0.26458333,848.5981,32.262011)" />
    <g
       id="g5957"
       transform="matrix(0.26458333,0,0,0.26458333,848.5981,32.262011)" />
    <g
       id="g5959"
       transform="matrix(0.26458333,0,0,0.26458333,848.5981,32.262011)" />
    <g
       id="g5961"
       transform="matrix(0.26458333,0,0,0.26458333,848.5981,32.262011)" />
    <g
       id="g5963"
       transform="matrix(0.26458333,0,0,0.26458333,848.5981,32.262011)" />
    <g
       id="g5965"
       transform="matrix(0.26458333,0,0,0.26458333,848.5981,32.262011)" />
    <g
       id="g5967"
       transform="matrix(0.26458333,0,0,0.26458333,848.5981,32.262011)" />
    <g
       id="g5969"
       transform="matrix(0.26458333,0,0,0.26458333,848.5981,32.262011)" />
    <g
       id="g5971"
       transform="matrix(0.26458333,0,0,0.26458333,848.5981,32.262011)" />
    <g
       id="g5973"
       transform="matrix(0.26458333,0,0,0.26458333,848.5981,32.262011)" />
    <g
       id="g5975"
       transform="matrix(0.26458333,0,0,0.26458333,848.5981,32.262011)" />
    <g
       id="g5977"
       transform="matrix(0.26458333,0,0,0.26458333,848.5981,32.262011)" />
    <g
       id="g6368"
       transform="matrix(0.26458333,0,0,0.26458333,713.44042,-27.300098)" />
    <g
       id="g6370"
       transform="matrix(0.26458333,0,0,0.26458333,713.44042,-27.300098)" />
    <g
       id="g6372"
       transform="matrix(0.26458333,0,0,0.26458333,713.44042,-27.300098)" />
    <g
       id="g6374"
       transform="matrix(0.26458333,0,0,0.26458333,713.44042,-27.300098)" />
    <g
       id="g6376"
       transform="matrix(0.26458333,0,0,0.26458333,713.44042,-27.300098)" />
    <g
       id="g6378"
       transform="matrix(0.26458333,0,0,0.26458333,713.44042,-27.300098)" />
    <g
       id="g6380"
       transform="matrix(0.26458333,0,0,0.26458333,713.44042,-27.300098)" />
    <g
       id="g6382"
       transform="matrix(0.26458333,0,0,0.26458333,713.44042,-27.300098)" />
    <g
       id="g6384"
       transform="matrix(0.26458333,0,0,0.26458333,713.44042,-27.300098)" />
    <g
       id="g6386"
       transform="matrix(0.26458333,0,0,0.26458333,713.44042,-27.300098)" />
    <g
       id="g6388"
       transform="matrix(0.26458333,0,0,0.26458333,713.44042,-27.300098)" />
    <g
       id="g6390"
       transform="matrix(0.26458333,0,0,0.26458333,713.44042,-27.300098)" />
    <g
       id="g6392"
       transform="matrix(0.26458333,0,0,0.26458333,713.44042,-27.300098)" />
    <g
       id="g6394"
       transform="matrix(0.26458333,0,0,0.26458333,713.44042,-27.300098)" />
    <g
       id="g6396"
       transform="matrix(0.26458333,0,0,0.26458333,713.44042,-27.300098)" />
    <g
       id="g6500"
       transform="matrix(0.26458333,0,0,0.26458333,828.83634,29.131615)" />
    <g
       id="g6502"
       transform="matrix(0.26458333,0,0,0.26458333,828.83634,29.131615)" />
    <g
       id="g6504"
       transform="matrix(0.26458333,0,0,0.26458333,828.83634,29.131615)" />
    <g
       id="g6506"
       transform="matrix(0.26458333,0,0,0.26458333,828.83634,29.131615)" />
    <g
       id="g6508"
       transform="matrix(0.26458333,0,0,0.26458333,828.83634,29.131615)" />
    <g
       id="g6510"
       transform="matrix(0.26458333,0,0,0.26458333,828.83634,29.131615)" />
    <g
       id="g6512"
       transform="matrix(0.26458333,0,0,0.26458333,828.83634,29.131615)" />
    <g
       id="g6514"
       transform="matrix(0.26458333,0,0,0.26458333,828.83634,29.131615)" />
    <g
       id="g6516"
       transform="matrix(0.26458333,0,0,0.26458333,828.83634,29.131615)" />
    <g
       id="g6518"
       transform="matrix(0.26458333,0,0,0.26458333,828.83634,29.131615)" />
    <g
       id="g6520"
       transform="matrix(0.26458333,0,0,0.26458333,828.83634,29.131615)" />
    <g
       id="g6522"
       transform="matrix(0.26458333,0,0,0.26458333,828.83634,29.131615)" />
    <g
       id="g6524"
       transform="matrix(0.26458333,0,0,0.26458333,828.83634,29.131615)" />
    <g
       id="g6526"
       transform="matrix(0.26458333,0,0,0.26458333,828.83634,29.131615)" />
    <g
       id="g6528"
       transform="matrix(0.26458333,0,0,0.26458333,828.83634,29.131615)" />
    <g
       style="stroke-width:0.07620888"
       id="g6737"
       transform="matrix(3.4718177,0,0,3.4718177,360.41607,38.930577)" />
    <g
       style="stroke-width:0.07620888"
       id="g6739"
       transform="matrix(3.4718177,0,0,3.4718177,360.41607,38.930577)" />
    <g
       style="stroke-width:0.07620888"
       id="g6741"
       transform="matrix(3.4718177,0,0,3.4718177,360.41607,38.930577)" />
    <g
       style="stroke-width:0.07620888"
       id="g6743"
       transform="matrix(3.4718177,0,0,3.4718177,360.41607,38.930577)" />
    <g
       style="stroke-width:0.07620888"
       id="g6745"
       transform="matrix(3.4718177,0,0,3.4718177,360.41607,38.930577)" />
    <g
       style="stroke-width:0.07620888"
       id="g6747"
       transform="matrix(3.4718177,0,0,3.4718177,360.41607,38.930577)" />
    <g
       style="stroke-width:0.07620888"
       id="g6749"
       transform="matrix(3.4718177,0,0,3.4718177,360.41607,38.930577)" />
    <g
       style="stroke-width:0.07620888"
       id="g6751"
       transform="matrix(3.4718177,0,0,3.4718177,360.41607,38.930577)" />
    <g
       style="stroke-width:0.07620888"
       id="g6753"
       transform="matrix(3.4718177,0,0,3.4718177,360.41607,38.930577)" />
    <g
       style="stroke-width:0.07620888"
       id="g6755"
       transform="matrix(3.4718177,0,0,3.4718177,360.41607,38.930577)" />
    <g
       style="stroke-width:0.07620888"
       id="g6757"
       transform="matrix(3.4718177,0,0,3.4718177,360.41607,38.930577)" />
    <g
       style="stroke-width:0.07620888"
       id="g6759"
       transform="matrix(3.4718177,0,0,3.4718177,360.41607,38.930577)" />
    <g
       style="stroke-width:0.07620888"
       id="g6761"
       transform="matrix(3.4718177,0,0,3.4718177,360.41607,38.930577)" />
    <g
       style="stroke-width:0.07620888"
       id="g6763"
       transform="matrix(3.4718177,0,0,3.4718177,360.41607,38.930577)" />
    <g
       style="stroke-width:0.07620888"
       id="g6765"
       transform="matrix(3.4718177,0,0,3.4718177,360.41607,38.930577)" />
    <g
       style="stroke-width:0.03000761"
       id="g4703"
       transform="matrix(8.8172082,0,0,8.8172082,289.73337,131.67578)" />
    <g
       style="stroke-width:0.03000761"
       id="g4705"
       transform="matrix(8.8172082,0,0,8.8172082,289.73337,131.67578)" />
    <g
       style="stroke-width:0.03000761"
       id="g4707"
       transform="matrix(8.8172082,0,0,8.8172082,289.73337,131.67578)" />
    <g
       style="stroke-width:0.03000761"
       id="g4709"
       transform="matrix(8.8172082,0,0,8.8172082,289.73337,131.67578)" />
    <g
       style="stroke-width:0.03000761"
       id="g4711"
       transform="matrix(8.8172082,0,0,8.8172082,289.73337,131.67578)" />
    <g
       style="stroke-width:0.03000761"
       id="g4713"
       transform="matrix(8.8172082,0,0,8.8172082,289.73337,131.67578)" />
    <g
       style="stroke-width:0.03000761"
       id="g4715"
       transform="matrix(8.8172082,0,0,8.8172082,289.73337,131.67578)" />
    <g
       style="stroke-width:0.03000761"
       id="g4717"
       transform="matrix(8.8172082,0,0,8.8172082,289.73337,131.67578)" />
    <g
       style="stroke-width:0.03000761"
       id="g4719"
       transform="matrix(8.8172082,0,0,8.8172082,289.73337,131.67578)" />
    <g
       style="stroke-width:0.03000761"
       id="g4721"
       transform="matrix(8.8172082,0,0,8.8172082,289.73337,131.67578)" />
    <g
       style="stroke-width:0.03000761"
       id="g4723"
       transform="matrix(8.8172082,0,0,8.8172082,289.73337,131.67578)" />
    <g
       style="stroke-width:0.03000761"
       id="g4725"
       transform="matrix(8.8172082,0,0,8.8172082,289.73337,131.67578)" />
    <g
       style="stroke-width:0.03000761"
       id="g4727"
       transform="matrix(8.8172082,0,0,8.8172082,289.73337,131.67578)" />
    <g
       style="stroke-width:0.03000761"
       id="g4729"
       transform="matrix(8.8172082,0,0,8.8172082,289.73337,131.67578)" />
    <g
       style="stroke-width:0.03000761"
       id="g4731"
       transform="matrix(8.8172082,0,0,8.8172082,289.73337,131.67578)" />
  </g>
</svg>
