<?xml version="1.0" encoding="UTF-8" standalone="no"?>
<!-- Created with Inkscape (http://www.inkscape.org/) -->

<svg
   xmlns:dc="http://purl.org/dc/elements/1.1/"
   xmlns:cc="http://creativecommons.org/ns#"
   xmlns:rdf="http://www.w3.org/1999/02/22-rdf-syntax-ns#"
   xmlns:svg="http://www.w3.org/2000/svg"
   xmlns="http://www.w3.org/2000/svg"
   xmlns:sodipodi="http://sodipodi.sourceforge.net/DTD/sodipodi-0.dtd"
   xmlns:inkscape="http://www.inkscape.org/namespaces/inkscape"
   width="247.04942mm"
   height="247.04942mm"
   viewBox="0 0 247.04942 247.04942"
   version="1.1"
   id="svg8"
   inkscape:version="0.92.1 r15371"
   sodipodi:docname="phone.svg">
  <defs
     id="defs2">
    <clipPath
       id="clipPath4797"
       clipPathUnits="userSpaceOnUse">
      <rect
         y="255.42262"
         x="-422.57736"
         height="71.059525"
         width="95.25"
         id="rect4799"
         style="opacity:1;vector-effect:none;fill:none;fill-opacity:1;fill-rule:evenodd;stroke:#ff0000;stroke-width:0.09999999;stroke-linecap:butt;stroke-linejoin:miter;stroke-miterlimit:4;stroke-dasharray:none;stroke-dashoffset:0;stroke-opacity:1" />
    </clipPath>
    <filter
       height="1.2424001"
       y="-0.1212"
       width="1.2424001"
       x="-0.1212"
       id="filter4912"
       style="color-interpolation-filters:sRGB"
       inkscape:collect="always">
      <feGaussianBlur
         id="feGaussianBlur4914"
         stdDeviation="10.041851"
         inkscape:collect="always" />
    </filter>
  </defs>
  <sodipodi:namedview
     id="base"
     pagecolor="#ffffff"
     bordercolor="#666666"
     borderopacity="1.0"
     inkscape:pageopacity="0.0"
     inkscape:pageshadow="2"
     inkscape:zoom="0.35"
     inkscape:cx="32.642949"
     inkscape:cy="452.37531"
     inkscape:document-units="mm"
     inkscape:current-layer="layer1"
     showgrid="false"
     fit-margin-top="0"
     fit-margin-left="0"
     fit-margin-right="0"
     fit-margin-bottom="0"
     inkscape:window-width="1920"
     inkscape:window-height="1017"
     inkscape:window-x="1358"
     inkscape:window-y="-8"
     inkscape:window-maximized="1" />
  <metadata
     id="metadata5">
    <rdf:RDF>
      <cc:Work
         rdf:about="">
        <dc:format>image/svg+xml</dc:format>
        <dc:type
           rdf:resource="http://purl.org/dc/dcmitype/StillImage" />
        <dc:title></dc:title>
      </cc:Work>
    </rdf:RDF>
  </metadata>
  <g
     inkscape:label="Layer 1"
     inkscape:groupmode="layer"
     id="layer1"
     transform="translate(28.669518,-21.474883)">
    <circle
       style="opacity:0.119;fill:#1b0f3f;fill-opacity:1;fill-rule:evenodd;stroke:#feffff;stroke-width:3.5;stroke-linecap:round;stroke-linejoin:miter;stroke-miterlimit:3.9000001;stroke-dasharray:none;stroke-dashoffset:0;stroke-opacity:1;paint-order:fill markers stroke;filter:url(#filter4912)"
       id="path4816"
       cx="94.855186"
       cy="144.99959"
       r="99.424263" />
    <g
       id="g4706"
       transform="matrix(0.26458333,0,0,0.26458333,729.14042,47.3873)" />
    <g
       id="g4708"
       transform="matrix(0.26458333,0,0,0.26458333,729.14042,47.3873)" />
    <g
       id="g4710"
       transform="matrix(0.26458333,0,0,0.26458333,729.14042,47.3873)" />
    <g
       id="g4712"
       transform="matrix(0.26458333,0,0,0.26458333,729.14042,47.3873)" />
    <g
       id="g4714"
       transform="matrix(0.26458333,0,0,0.26458333,729.14042,47.3873)" />
    <g
       id="g4716"
       transform="matrix(0.26458333,0,0,0.26458333,729.14042,47.3873)" />
    <g
       id="g4718"
       transform="matrix(0.26458333,0,0,0.26458333,729.14042,47.3873)" />
    <g
       id="g4720"
       transform="matrix(0.26458333,0,0,0.26458333,729.14042,47.3873)" />
    <g
       id="g4722"
       transform="matrix(0.26458333,0,0,0.26458333,729.14042,47.3873)" />
    <g
       id="g4724"
       transform="matrix(0.26458333,0,0,0.26458333,729.14042,47.3873)" />
    <g
       id="g4726"
       transform="matrix(0.26458333,0,0,0.26458333,729.14042,47.3873)" />
    <g
       id="g4728"
       transform="matrix(0.26458333,0,0,0.26458333,729.14042,47.3873)" />
    <g
       id="g4730"
       transform="matrix(0.26458333,0,0,0.26458333,729.14042,47.3873)" />
    <g
       id="g4732"
       transform="matrix(0.26458333,0,0,0.26458333,729.14042,47.3873)" />
    <g
       id="g4734"
       transform="matrix(0.26458333,0,0,0.26458333,729.14042,47.3873)" />
    <g
       style="stroke-width:0.40322241"
       id="g4952"
       transform="matrix(0.6561722,0,0,0.6561722,831.0096,-30.20993)" />
    <g
       style="stroke-width:0.40322241"
       id="g4954"
       transform="matrix(0.6561722,0,0,0.6561722,831.0096,-30.20993)" />
    <g
       style="stroke-width:0.40322241"
       id="g4956"
       transform="matrix(0.6561722,0,0,0.6561722,831.0096,-30.20993)" />
    <g
       style="stroke-width:0.40322241"
       id="g4958"
       transform="matrix(0.6561722,0,0,0.6561722,831.0096,-30.20993)" />
    <g
       style="stroke-width:0.40322241"
       id="g4960"
       transform="matrix(0.6561722,0,0,0.6561722,831.0096,-30.20993)" />
    <g
       style="stroke-width:0.40322241"
       id="g4962"
       transform="matrix(0.6561722,0,0,0.6561722,831.0096,-30.20993)" />
    <g
       style="stroke-width:0.40322241"
       id="g4964"
       transform="matrix(0.6561722,0,0,0.6561722,831.0096,-30.20993)" />
    <g
       style="stroke-width:0.40322241"
       id="g4966"
       transform="matrix(0.6561722,0,0,0.6561722,831.0096,-30.20993)" />
    <g
       style="stroke-width:0.40322241"
       id="g4968"
       transform="matrix(0.6561722,0,0,0.6561722,831.0096,-30.20993)" />
    <g
       style="stroke-width:0.40322241"
       id="g4970"
       transform="matrix(0.6561722,0,0,0.6561722,831.0096,-30.20993)" />
    <g
       style="stroke-width:0.40322241"
       id="g4972"
       transform="matrix(0.6561722,0,0,0.6561722,831.0096,-30.20993)" />
    <g
       style="stroke-width:0.40322241"
       id="g4974"
       transform="matrix(0.6561722,0,0,0.6561722,831.0096,-30.20993)" />
    <g
       style="stroke-width:0.40322241"
       id="g4976"
       transform="matrix(0.6561722,0,0,0.6561722,831.0096,-30.20993)" />
    <g
       style="stroke-width:0.40322241"
       id="g4978"
       transform="matrix(0.6561722,0,0,0.6561722,831.0096,-30.20993)" />
    <g
       style="stroke-width:0.40322241"
       id="g4980"
       transform="matrix(0.6561722,0,0,0.6561722,831.0096,-30.20993)" />
    <g
       id="g5364"
       transform="matrix(0.26458333,0,0,0.26458333,629.91204,24.46524)" />
    <g
       id="g5366"
       transform="matrix(0.26458333,0,0,0.26458333,629.91204,24.46524)" />
    <g
       id="g5368"
       transform="matrix(0.26458333,0,0,0.26458333,629.91204,24.46524)" />
    <g
       id="g5370"
       transform="matrix(0.26458333,0,0,0.26458333,629.91204,24.46524)" />
    <g
       id="g5372"
       transform="matrix(0.26458333,0,0,0.26458333,629.91204,24.46524)" />
    <g
       id="g5374"
       transform="matrix(0.26458333,0,0,0.26458333,629.91204,24.46524)" />
    <g
       id="g5376"
       transform="matrix(0.26458333,0,0,0.26458333,629.91204,24.46524)" />
    <g
       id="g5378"
       transform="matrix(0.26458333,0,0,0.26458333,629.91204,24.46524)" />
    <g
       id="g5380"
       transform="matrix(0.26458333,0,0,0.26458333,629.91204,24.46524)" />
    <g
       id="g5382"
       transform="matrix(0.26458333,0,0,0.26458333,629.91204,24.46524)" />
    <g
       id="g5384"
       transform="matrix(0.26458333,0,0,0.26458333,629.91204,24.46524)" />
    <g
       id="g5386"
       transform="matrix(0.26458333,0,0,0.26458333,629.91204,24.46524)" />
    <g
       id="g5388"
       transform="matrix(0.26458333,0,0,0.26458333,629.91204,24.46524)" />
    <g
       id="g5390"
       transform="matrix(0.26458333,0,0,0.26458333,629.91204,24.46524)" />
    <g
       id="g5392"
       transform="matrix(0.26458333,0,0,0.26458333,629.91204,24.46524)" />
    <g
       id="g5475"
       transform="matrix(0.26458333,0,0,0.26458333,293.797,-88.939897)" />
    <g
       id="g5477"
       transform="matrix(0.26458333,0,0,0.26458333,293.797,-88.939897)" />
    <g
       id="g5479"
       transform="matrix(0.26458333,0,0,0.26458333,293.797,-88.939897)" />
    <g
       id="g5481"
       transform="matrix(0.26458333,0,0,0.26458333,293.797,-88.939897)" />
    <g
       id="g5483"
       transform="matrix(0.26458333,0,0,0.26458333,293.797,-88.939897)" />
    <g
       id="g5485"
       transform="matrix(0.26458333,0,0,0.26458333,293.797,-88.939897)" />
    <g
       id="g5487"
       transform="matrix(0.26458333,0,0,0.26458333,293.797,-88.939897)" />
    <g
       id="g5489"
       transform="matrix(0.26458333,0,0,0.26458333,293.797,-88.939897)" />
    <g
       id="g5491"
       transform="matrix(0.26458333,0,0,0.26458333,293.797,-88.939897)" />
    <g
       id="g5493"
       transform="matrix(0.26458333,0,0,0.26458333,293.797,-88.939897)" />
    <g
       id="g5495"
       transform="matrix(0.26458333,0,0,0.26458333,293.797,-88.939897)" />
    <g
       id="g5497"
       transform="matrix(0.26458333,0,0,0.26458333,293.797,-88.939897)" />
    <g
       id="g5499"
       transform="matrix(0.26458333,0,0,0.26458333,293.797,-88.939897)" />
    <g
       id="g5501"
       transform="matrix(0.26458333,0,0,0.26458333,293.797,-88.939897)" />
    <g
       id="g5503"
       transform="matrix(0.26458333,0,0,0.26458333,293.797,-88.939897)" />
    <g
       id="g5949"
       transform="matrix(0.26458333,0,0,0.26458333,665.95172,-111.0966)" />
    <g
       id="g5951"
       transform="matrix(0.26458333,0,0,0.26458333,665.95172,-111.0966)" />
    <g
       id="g5953"
       transform="matrix(0.26458333,0,0,0.26458333,665.95172,-111.0966)" />
    <g
       id="g5955"
       transform="matrix(0.26458333,0,0,0.26458333,665.95172,-111.0966)" />
    <g
       id="g5957"
       transform="matrix(0.26458333,0,0,0.26458333,665.95172,-111.0966)" />
    <g
       id="g5959"
       transform="matrix(0.26458333,0,0,0.26458333,665.95172,-111.0966)" />
    <g
       id="g5961"
       transform="matrix(0.26458333,0,0,0.26458333,665.95172,-111.0966)" />
    <g
       id="g5963"
       transform="matrix(0.26458333,0,0,0.26458333,665.95172,-111.0966)" />
    <g
       id="g5965"
       transform="matrix(0.26458333,0,0,0.26458333,665.95172,-111.0966)" />
    <g
       id="g5967"
       transform="matrix(0.26458333,0,0,0.26458333,665.95172,-111.0966)" />
    <g
       id="g5969"
       transform="matrix(0.26458333,0,0,0.26458333,665.95172,-111.0966)" />
    <g
       id="g5971"
       transform="matrix(0.26458333,0,0,0.26458333,665.95172,-111.0966)" />
    <g
       id="g5973"
       transform="matrix(0.26458333,0,0,0.26458333,665.95172,-111.0966)" />
    <g
       id="g5975"
       transform="matrix(0.26458333,0,0,0.26458333,665.95172,-111.0966)" />
    <g
       id="g5977"
       transform="matrix(0.26458333,0,0,0.26458333,665.95172,-111.0966)" />
    <g
       id="g6368"
       transform="matrix(0.26458333,0,0,0.26458333,530.79404,-170.65871)" />
    <g
       id="g6370"
       transform="matrix(0.26458333,0,0,0.26458333,530.79404,-170.65871)" />
    <g
       id="g6372"
       transform="matrix(0.26458333,0,0,0.26458333,530.79404,-170.65871)" />
    <g
       id="g6374"
       transform="matrix(0.26458333,0,0,0.26458333,530.79404,-170.65871)" />
    <g
       id="g6376"
       transform="matrix(0.26458333,0,0,0.26458333,530.79404,-170.65871)" />
    <g
       id="g6378"
       transform="matrix(0.26458333,0,0,0.26458333,530.79404,-170.65871)" />
    <g
       id="g6380"
       transform="matrix(0.26458333,0,0,0.26458333,530.79404,-170.65871)" />
    <g
       id="g6382"
       transform="matrix(0.26458333,0,0,0.26458333,530.79404,-170.65871)" />
    <g
       id="g6384"
       transform="matrix(0.26458333,0,0,0.26458333,530.79404,-170.65871)" />
    <g
       id="g6386"
       transform="matrix(0.26458333,0,0,0.26458333,530.79404,-170.65871)" />
    <g
       id="g6388"
       transform="matrix(0.26458333,0,0,0.26458333,530.79404,-170.65871)" />
    <g
       id="g6390"
       transform="matrix(0.26458333,0,0,0.26458333,530.79404,-170.65871)" />
    <g
       id="g6392"
       transform="matrix(0.26458333,0,0,0.26458333,530.79404,-170.65871)" />
    <g
       id="g6394"
       transform="matrix(0.26458333,0,0,0.26458333,530.79404,-170.65871)" />
    <g
       id="g6396"
       transform="matrix(0.26458333,0,0,0.26458333,530.79404,-170.65871)" />
    <g
       id="g6500"
       transform="matrix(0.26458333,0,0,0.26458333,646.18996,-114.227)" />
    <g
       id="g6502"
       transform="matrix(0.26458333,0,0,0.26458333,646.18996,-114.227)" />
    <g
       id="g6504"
       transform="matrix(0.26458333,0,0,0.26458333,646.18996,-114.227)" />
    <g
       id="g6506"
       transform="matrix(0.26458333,0,0,0.26458333,646.18996,-114.227)" />
    <g
       id="g6508"
       transform="matrix(0.26458333,0,0,0.26458333,646.18996,-114.227)" />
    <g
       id="g6510"
       transform="matrix(0.26458333,0,0,0.26458333,646.18996,-114.227)" />
    <g
       id="g6512"
       transform="matrix(0.26458333,0,0,0.26458333,646.18996,-114.227)" />
    <g
       id="g6514"
       transform="matrix(0.26458333,0,0,0.26458333,646.18996,-114.227)" />
    <g
       id="g6516"
       transform="matrix(0.26458333,0,0,0.26458333,646.18996,-114.227)" />
    <g
       id="g6518"
       transform="matrix(0.26458333,0,0,0.26458333,646.18996,-114.227)" />
    <g
       id="g6520"
       transform="matrix(0.26458333,0,0,0.26458333,646.18996,-114.227)" />
    <g
       id="g6522"
       transform="matrix(0.26458333,0,0,0.26458333,646.18996,-114.227)" />
    <g
       id="g6524"
       transform="matrix(0.26458333,0,0,0.26458333,646.18996,-114.227)" />
    <g
       id="g6526"
       transform="matrix(0.26458333,0,0,0.26458333,646.18996,-114.227)" />
    <g
       id="g6528"
       transform="matrix(0.26458333,0,0,0.26458333,646.18996,-114.227)" />
    <g
       id="g6631"
       transform="matrix(0.85179262,0,0,0.85179262,346.26969,-57.96546)"
       inkscape:export-xdpi="99.733902"
       inkscape:export-ydpi="99.733902"
       style="stroke-width:1.17399466">
      <path
         id="path6182"
         d="m -250.92573,142.58413 h -62.08889 c -6.23425,0 -11.28889,5.05465 -11.28889,11.28889 v 5.64445 h 84.66667 v -5.64445 c 0,-6.23424 -5.05465,-11.28889 -11.28889,-11.28889 z m 0,0"
         inkscape:connector-curvature="0"
         style="fill:#3a434d;fill-opacity:1;stroke-width:0.41415924" />
      <path
         id="path6184"
         d="m -324.30351,294.98413 c 0,6.23425 5.05464,11.28889 11.28889,11.28889 h 62.08889 c 6.23424,0 11.28889,-5.05464 11.28889,-11.28889 v -11.28889 h -84.66667 z m 0,0"
         inkscape:connector-curvature="0"
         style="fill:#3a434d;fill-opacity:1;stroke-width:0.41415924" />
      <path
         id="path6186"
         d="m -324.30351,159.51747 h 84.66667 v 124.17777 h -84.66667 z m 0,0"
         inkscape:connector-curvature="0"
         style="fill:#00c3ff;fill-opacity:1;stroke-width:0.41415924" />
      <path
         id="path6192"
         d="m -284.7924,292.16191 h 5.64445 v 5.64445 h -5.64445 z m 0,0"
         inkscape:connector-curvature="0"
         style="fill:#00c3ff;fill-opacity:1;stroke-width:0.41415924" />
      <path
         id="path6194"
         d="m -221.07824,193.667 c 0,12.83664 -10.40607,23.24271 -23.24271,23.24271 -12.83663,0 -23.2427,-10.40607 -23.2427,-23.24271 0,-12.83663 10.40607,-23.2427 23.2427,-23.2427 6.17101,-0.0208 12.09518,2.42111 16.45886,6.78385 4.36273,4.36368 6.80466,10.28785 6.78385,16.45885 z m 0,0"
         inkscape:connector-curvature="0"
         style="fill:#dceeef;fill-opacity:1;stroke-width:0.41415924" />
      <g
         transform="rotate(-173.0214,-230.03171,255.88978)"
         id="g6354"
         style="stroke-width:1.17399466">
        <path
           style="fill:#60a25f;fill-opacity:0.96470588;stroke-width:0.41415924"
           inkscape:connector-curvature="0"
           d="m -128.81422,248.16548 46.235929,-40.79544 c 1.1231,-0.99081 2.56729,-1.53651 4.06522,-1.53789 3.39273,0 6.14329,2.75056 6.14329,6.14329 -10e-4,1.49793 -0.54708,2.94211 -1.53789,4.06521 l -40.795439,46.23594 z m 0,0"
           id="path6198" />
        <path
           style="fill:#dceeef;fill-opacity:1;stroke-width:0.41415924"
           inkscape:connector-curvature="0"
           d="m -127.30231,246.65358 c -9.35137,0 -16.93334,7.58197 -16.93334,16.93333 v 4.97886 c 0,3.86677 -2.18556,7.40282 -5.64444,9.13226 h 19.75555 c 9.35137,0 16.93334,-7.58197 16.93334,-16.93334 z m 0,0"
           id="path6200" />
      </g>
      <g
         style="stroke-width:0.83765233"
         transform="matrix(1.9642858,0,0,1,356.86889,9.827381)"
         id="g6343">
        <path
           style="fill:#87ced9;stroke-width:0.29550511"
           inkscape:connector-curvature="0"
           d="m -363.81462,153.87302 h 28.22222 v 22.57778 h -28.22222 z m 0,0"
           id="path6208" />
        <path
           style="fill:#5eb3d1;stroke-width:0.29550511"
           inkscape:connector-curvature="0"
           d="m -355.34795,162.33969 h 11.28889 v 5.64444 h -11.28889 z m 0,0"
           id="path6210" />
      </g>
      <g
         style="stroke-width:1.20731342"
         transform="matrix(-0.97240256,0,0,0.97240256,-432.48194,116.01062)"
         id="g6350">
        <path
           style="fill:#87ced9;stroke-width:0.42591333"
           inkscape:connector-curvature="0"
           d="m -234.59716,132.70635 h 62.08889 v 33.86667 h -62.08889 z m 0,0"
           id="path6218" />
        <g
           style="fill:#5eb3d1;stroke-width:1.20731342"
           id="g6226"
           transform="matrix(0.35277778,0,0,0.35277778,-333.55133,119.3512)">
          <path
             style="stroke-width:1.20731342"
             inkscape:connector-curvature="0"
             d="m 304.5,64 h 32 v 16 h -32 z m 0,0"
             id="path6220" />
          <path
             style="stroke-width:1.20731342"
             inkscape:connector-curvature="0"
             d="m 352.5,64 h 80 v 16 h -80 z m 0,0"
             id="path6222" />
          <path
             style="stroke-width:1.20731342"
             inkscape:connector-curvature="0"
             d="m 304.5,96 h 128 v 16 h -128 z m 0,0"
             id="path6224" />
        </g>
      </g>
      <path
         id="path6472"
         d="m -242.7793,200.28196 h -4.99886 c -3.7285,0 -6.76187,3.03337 -6.76187,6.76187 v 7.65724 c 0,0.30049 0.24361,0.5441 0.5441,0.5441 h 17.43434 c 0.30048,0 0.54409,-0.24361 0.54409,-0.5441 v -7.65724 c 7e-5,-3.7285 -3.0333,-6.76187 -6.7618,-6.76187 z"
         style="fill:#5c9cee;stroke-width:0.31061941"
         inkscape:connector-curvature="0" />
      <path
         id="path6476"
         d="m -244.45014,200.40889 h -1.80051 l -2.40537,8.17569 c -0.0516,0.17534 -0.005,0.36483 0.12322,0.49562 l 2.82081,2.88911 c 0.19825,0.20306 0.52485,0.20306 0.7231,0 l 2.82081,-2.88911 c 0.12768,-0.13079 0.17485,-0.32028 0.12322,-0.49562 z"
         style="fill:#3a434d;fill-opacity:1;stroke-width:0.31061941"
         inkscape:connector-curvature="0" />
      <path
         id="path6478"
         d="m -244.99756,182.1573 v 0 c -4.08762,0 -7.40133,3.31371 -7.40133,7.40133 v 3.56836 c 0,4.08769 3.31371,7.40133 7.40133,7.40133 v 0 c 4.08762,0 7.40133,-3.31371 7.40133,-7.40133 v -3.56836 c 0,-4.08762 -3.31371,-7.40133 -7.40133,-7.40133 z"
         style="fill:#f9c295;stroke-width:0.31061941"
         inkscape:connector-curvature="0" />
      <path
         id="path6480"
         d="m -244.99756,182.1573 c -0.16615,0 -0.33088,0.006 -0.49432,0.0168 3.37412,0.25442 6.04225,3.46305 6.04225,7.38451 v 3.56828 c 0,3.92154 -2.66805,7.13009 -6.04225,7.38452 0.16344,0.0108 0.32817,0.0168 0.49432,0.0168 4.08762,0 7.40133,-3.31371 7.40133,-7.40133 v -3.56828 c 0,-4.08761 -3.31371,-7.40133 -7.40133,-7.40133 z"
         style="fill:#e59f6a;stroke-width:0.31061941"
         inkscape:connector-curvature="0" />
      <path
         id="path6482"
         d="m -240.18199,183.94166 c 7e-5,-2.9e-4 1.4e-4,-4.5e-4 2.1e-4,-6.9e-4 -0.0137,-0.0117 -0.0279,-0.0226 -0.0417,-0.0342 -0.0567,-0.0479 -0.11393,-0.0952 -0.17207,-0.14136 -0.0265,-0.0211 -0.0533,-0.0417 -0.08,-0.0624 -0.0533,-0.0412 -0.10709,-0.0817 -0.16146,-0.12141 -0.0317,-0.0233 -0.0636,-0.0462 -0.0958,-0.0689 -0.0499,-0.0352 -0.10017,-0.0697 -0.15098,-0.10366 -0.0373,-0.025 -0.0746,-0.0499 -0.11235,-0.0742 -0.0455,-0.0293 -0.0916,-0.0578 -0.13786,-0.0861 -0.0438,-0.0269 -0.0874,-0.0537 -0.13168,-0.0797 -0.0391,-0.0229 -0.0787,-0.0447 -0.11827,-0.0669 -0.0521,-0.0293 -0.10402,-0.0586 -0.15689,-0.0866 -0.0272,-0.0144 -0.0549,-0.0279 -0.0823,-0.042 -1.01195,-0.52025 -2.1582,-0.81579 -3.37449,-0.81579 -4.08762,0 -7.40133,3.31371 -7.40133,7.40133 v 0.6842 c 1.08989,0.48086 2.29414,0.74983 3.56194,0.74983 2.60351,0 4.9426,-1.12745 6.55953,-2.91915 1.02242,1.57539 2.71857,2.67319 4.68119,2.88217 v -1.39727 c 0,-2.24805 -1.00347,-4.26012 -2.58577,-5.61698 z"
         style="fill:#3a434d;fill-opacity:1;stroke-width:0.31061941"
         inkscape:connector-curvature="0" />
      <path
         id="path6484"
         d="m -237.60721,189.15686 c -0.001,-0.0244 -0.003,-0.0487 -0.005,-0.073 -0.003,-0.0423 -0.005,-0.0847 -0.009,-0.12689 -0.002,-0.025 -0.005,-0.0497 -0.007,-0.0746 -0.003,-0.0416 -0.008,-0.0831 -0.0121,-0.12462 -0.003,-0.0244 -0.005,-0.0488 -0.008,-0.0732 -0.005,-0.0421 -0.0102,-0.0841 -0.0159,-0.12597 -0.003,-0.023 -0.006,-0.046 -0.01,-0.0689 -0.006,-0.0439 -0.0131,-0.0876 -0.0202,-0.13124 -0.003,-0.0205 -0.007,-0.041 -0.0102,-0.0614 -0.008,-0.0476 -0.0169,-0.095 -0.026,-0.14234 -0.003,-0.016 -0.006,-0.032 -0.009,-0.048 -0.011,-0.0554 -0.0227,-0.11051 -0.035,-0.16544 -0.002,-0.008 -0.003,-0.0153 -0.005,-0.0229 -0.3571,-1.57582 -1.21758,-2.96025 -2.40309,-3.97676 7e-5,-2.9e-4 1.4e-4,-4.4e-4 2.2e-4,-6.8e-4 -0.0137,-0.0117 -0.028,-0.0226 -0.0417,-0.0342 -0.0567,-0.048 -0.11393,-0.0952 -0.17207,-0.14136 -0.0265,-0.0211 -0.0533,-0.0417 -0.08,-0.0624 -0.0533,-0.0412 -0.10709,-0.0817 -0.16145,-0.12141 -0.0317,-0.0233 -0.0636,-0.0462 -0.0958,-0.0689 -0.0499,-0.0352 -0.10018,-0.0697 -0.15099,-0.10367 -0.0373,-0.025 -0.0746,-0.0499 -0.11235,-0.0742 -0.0455,-0.0293 -0.0916,-0.0578 -0.13787,-0.0862 -0.0438,-0.0269 -0.0874,-0.0537 -0.13166,-0.0797 -0.0391,-0.0228 -0.0787,-0.0447 -0.11828,-0.0669 -0.0521,-0.0293 -0.10402,-0.0586 -0.15689,-0.0866 -0.0273,-0.0143 -0.0549,-0.0279 -0.0823,-0.042 -0.75809,-0.38981 -1.59156,-0.65335 -2.47327,-0.76108 -0.004,-4.5e-4 -0.008,-6.9e-4 -0.0123,-0.001 -0.0634,-0.008 -0.12718,-0.0143 -0.19109,-0.0204 -0.017,-0.001 -0.034,-0.003 -0.0509,-0.005 -0.0519,-0.005 -0.10395,-0.008 -0.15617,-0.0118 -0.0216,-0.001 -0.0432,-0.003 -0.0649,-0.004 -0.0502,-0.003 -0.1006,-0.005 -0.15105,-0.007 -0.0211,-6.8e-4 -0.0421,-0.002 -0.0633,-0.002 -0.069,-0.002 -0.1383,-0.003 -0.20777,-0.003 -0.001,0 -0.002,-7e-5 -0.003,-7e-5 -0.0796,0 -0.15882,0.001 -0.23769,0.004 -0.009,3e-4 -0.0183,6.9e-4 -0.0274,6.9e-4 -0.0767,0.003 -0.15311,0.007 -0.22921,0.0116 3.37413,0.25443 6.04226,3.46305 6.04226,7.38451 v 0.90871 c 0.57846,0.25072 1.20111,0.41887 1.8534,0.48834 v -1.39774 c 0,-0.0674 -6.9e-4,-0.13452 -0.003,-0.20149 -4.4e-4,-0.0207 -0.002,-0.0414 -0.002,-0.0621 -0.002,-0.0461 -0.003,-0.0923 -0.006,-0.13815 z"
         style="fill:#2e344c;stroke-width:0.31061941"
         inkscape:connector-curvature="0" />
      <path
         id="path6214"
         d="m -214.36829,191.73011 h -5.90904 c -0.9656,-12.35998 -10.78436,-22.17874 -23.14434,-23.14434 v -5.90904 h -3.87378 v 5.90904 c -12.35998,0.9656 -22.17874,10.78436 -23.14435,23.14434 h -5.90903 v 3.87378 h 5.91376 c 0.91359,12.38363 10.75599,22.23265 23.13962,23.15381 v 5.89957 h 3.87378 v -5.89957 c 12.38363,-0.92116 22.22602,-10.77018 23.13961,-23.15381 h 5.91377 z m -16.78703,17.81978 c -3.40658,3.05477 -7.70879,4.92546 -12.26635,5.33402 v -3.78488 h -3.87378 v 3.78488 c -10.24151,-0.91832 -18.35508,-9.03851 -19.26584,-19.28002 h 3.7707 v -3.87378 h -3.77543 c 0.9467,-10.22543 9.04514,-18.32386 19.27057,-19.27056 v 3.77543 h 3.87378 v -3.77543 c 10.22543,0.9467 18.32386,9.04513 19.27056,19.27056 h -3.77543 v 3.87378 h 3.7707 c -0.48422,5.36996 -2.98573,10.35595 -6.99948,13.95546 z m 0,0"
         inkscape:connector-curvature="0"
         style="fill:#5fa25f;fill-opacity:0.96470588;stroke-width:0.41415924" />
    </g>
    <g
       style="stroke-width:0.07620888"
       id="g6737"
       transform="matrix(3.4718177,0,0,3.4718177,177.76969,-104.42804)" />
    <g
       style="stroke-width:0.07620888"
       id="g6739"
       transform="matrix(3.4718177,0,0,3.4718177,177.76969,-104.42804)" />
    <g
       style="stroke-width:0.07620888"
       id="g6741"
       transform="matrix(3.4718177,0,0,3.4718177,177.76969,-104.42804)" />
    <g
       style="stroke-width:0.07620888"
       id="g6743"
       transform="matrix(3.4718177,0,0,3.4718177,177.76969,-104.42804)" />
    <g
       style="stroke-width:0.07620888"
       id="g6745"
       transform="matrix(3.4718177,0,0,3.4718177,177.76969,-104.42804)" />
    <g
       style="stroke-width:0.07620888"
       id="g6747"
       transform="matrix(3.4718177,0,0,3.4718177,177.76969,-104.42804)" />
    <g
       style="stroke-width:0.07620888"
       id="g6749"
       transform="matrix(3.4718177,0,0,3.4718177,177.76969,-104.42804)" />
    <g
       style="stroke-width:0.07620888"
       id="g6751"
       transform="matrix(3.4718177,0,0,3.4718177,177.76969,-104.42804)" />
    <g
       style="stroke-width:0.07620888"
       id="g6753"
       transform="matrix(3.4718177,0,0,3.4718177,177.76969,-104.42804)" />
    <g
       style="stroke-width:0.07620888"
       id="g6755"
       transform="matrix(3.4718177,0,0,3.4718177,177.76969,-104.42804)" />
    <g
       style="stroke-width:0.07620888"
       id="g6757"
       transform="matrix(3.4718177,0,0,3.4718177,177.76969,-104.42804)" />
    <g
       style="stroke-width:0.07620888"
       id="g6759"
       transform="matrix(3.4718177,0,0,3.4718177,177.76969,-104.42804)" />
    <g
       style="stroke-width:0.07620888"
       id="g6761"
       transform="matrix(3.4718177,0,0,3.4718177,177.76969,-104.42804)" />
    <g
       style="stroke-width:0.07620888"
       id="g6763"
       transform="matrix(3.4718177,0,0,3.4718177,177.76969,-104.42804)" />
    <g
       style="stroke-width:0.07620888"
       id="g6765"
       transform="matrix(3.4718177,0,0,3.4718177,177.76969,-104.42804)" />
    <g
       style="stroke-width:0.03000761"
       id="g4703"
       transform="matrix(8.8172082,0,0,8.8172082,107.08699,-11.68284)" />
    <g
       style="stroke-width:0.03000761"
       id="g4705"
       transform="matrix(8.8172082,0,0,8.8172082,107.08699,-11.68284)" />
    <g
       style="stroke-width:0.03000761"
       id="g4707"
       transform="matrix(8.8172082,0,0,8.8172082,107.08699,-11.68284)" />
    <g
       style="stroke-width:0.03000761"
       id="g4709"
       transform="matrix(8.8172082,0,0,8.8172082,107.08699,-11.68284)" />
    <g
       style="stroke-width:0.03000761"
       id="g4711"
       transform="matrix(8.8172082,0,0,8.8172082,107.08699,-11.68284)" />
    <g
       style="stroke-width:0.03000761"
       id="g4713"
       transform="matrix(8.8172082,0,0,8.8172082,107.08699,-11.68284)" />
    <g
       style="stroke-width:0.03000761"
       id="g4715"
       transform="matrix(8.8172082,0,0,8.8172082,107.08699,-11.68284)" />
    <g
       style="stroke-width:0.03000761"
       id="g4717"
       transform="matrix(8.8172082,0,0,8.8172082,107.08699,-11.68284)" />
    <g
       style="stroke-width:0.03000761"
       id="g4719"
       transform="matrix(8.8172082,0,0,8.8172082,107.08699,-11.68284)" />
    <g
       style="stroke-width:0.03000761"
       id="g4721"
       transform="matrix(8.8172082,0,0,8.8172082,107.08699,-11.68284)" />
    <g
       style="stroke-width:0.03000761"
       id="g4723"
       transform="matrix(8.8172082,0,0,8.8172082,107.08699,-11.68284)" />
    <g
       style="stroke-width:0.03000761"
       id="g4725"
       transform="matrix(8.8172082,0,0,8.8172082,107.08699,-11.68284)" />
    <g
       style="stroke-width:0.03000761"
       id="g4727"
       transform="matrix(8.8172082,0,0,8.8172082,107.08699,-11.68284)" />
    <g
       style="stroke-width:0.03000761"
       id="g4729"
       transform="matrix(8.8172082,0,0,8.8172082,107.08699,-11.68284)" />
    <g
       style="stroke-width:0.03000761"
       id="g4731"
       transform="matrix(8.8172082,0,0,8.8172082,107.08699,-11.68284)" />
  </g>
</svg>
