<?xml version="1.0" encoding="UTF-8" standalone="no"?>
<!-- Created with Inkscape (http://www.inkscape.org/) -->

<svg
   xmlns:dc="http://purl.org/dc/elements/1.1/"
   xmlns:cc="http://creativecommons.org/ns#"
   xmlns:rdf="http://www.w3.org/1999/02/22-rdf-syntax-ns#"
   xmlns:svg="http://www.w3.org/2000/svg"
   xmlns="http://www.w3.org/2000/svg"
   xmlns:sodipodi="http://sodipodi.sourceforge.net/DTD/sodipodi-0.dtd"
   xmlns:inkscape="http://www.inkscape.org/namespaces/inkscape"
   width="41.728569mm"
   height="33.904461mm"
   viewBox="0 0 41.728569 33.904461"
   version="1.1"
   id="svg8"
   inkscape:version="0.92.1 r15371"
   sodipodi:docname="twitter-logo.svg">
  <defs
     id="defs2" />
  <sodipodi:namedview
     id="base"
     pagecolor="#000000"
     bordercolor="#666666"
     borderopacity="1.0"
     inkscape:pageopacity="0"
     inkscape:pageshadow="2"
     inkscape:zoom="0.35"
     inkscape:cx="-254"
     inkscape:cy="153.7143"
     inkscape:document-units="mm"
     inkscape:current-layer="layer1"
     showgrid="false"
     fit-margin-top="0"
     fit-margin-left="0"
     fit-margin-right="0"
     fit-margin-bottom="0"
     inkscape:window-width="1366"
     inkscape:window-height="705"
     inkscape:window-x="-8"
     inkscape:window-y="525"
     inkscape:window-maximized="1" />
  <metadata
     id="metadata5">
    <rdf:RDF>
      <cc:Work
         rdf:about="">
        <dc:format>image/svg+xml</dc:format>
        <dc:type
           rdf:resource="http://purl.org/dc/dcmitype/StillImage" />
        <dc:title></dc:title>
      </cc:Work>
    </rdf:RDF>
  </metadata>
  <g
     inkscape:label="Layer 1"
     inkscape:groupmode="layer"
     id="layer1"
     transform="translate(-47.171429,-155.59911)">
    <g
       id="g4546"
       transform="matrix(0.08150111,0,0,0.08150111,47.171429,151.68706)"
       style="fill:#ffffff;stroke-width:3.24637699">
      <g
         id="g4489"
         style="fill:#ffffff;stroke-width:3.24637699">
        <g
           id="g4487"
           style="fill:#ffffff;stroke-width:3.24637699">
          <path
             id="path4485"
             d="m 512,97.248 c -19.04,8.352 -39.328,13.888 -60.48,16.576 21.76,-12.992 38.368,-33.408 46.176,-58.016 -20.288,12.096 -42.688,20.64 -66.56,25.408 C 411.872,60.704 384.416,48 354.464,48 296.352,48 249.568,95.168 249.568,152.992 c 0,8.32 0.704,16.32 2.432,23.936 C 164.736,172.672 87.52,130.848 35.648,67.136 26.592,82.848 21.28,100.832 21.28,120.192 c 0,36.352 18.72,68.576 46.624,87.232 -16.864,-0.32 -33.408,-5.216 -47.424,-12.928 0,0.32 0,0.736 0,1.152 0,51.008 36.384,93.376 84.096,103.136 -8.544,2.336 -17.856,3.456 -27.52,3.456 -6.72,0 -13.504,-0.384 -19.872,-1.792 13.6,41.568 52.192,72.128 98.08,73.12 -35.712,27.936 -81.056,44.768 -130.144,44.768 -8.608,0 -16.864,-0.384 -25.12,-1.44 C 46.496,446.88 101.6,464 161.024,464 c 193.152,0 298.752,-160 298.752,-298.688 0,-4.64 -0.16,-9.12 -0.384,-13.568 C 480.224,136.96 497.728,118.496 512,97.248 Z"
             inkscape:connector-curvature="0"
             style="fill:#ffffff;stroke-width:3.24637699" />
        </g>
      </g>
      <g
         id="g4491"
         style="fill:#ffffff;stroke-width:3.24637699" />
      <g
         id="g4493"
         style="fill:#ffffff;stroke-width:3.24637699" />
      <g
         id="g4495"
         style="fill:#ffffff;stroke-width:3.24637699" />
      <g
         id="g4497"
         style="fill:#ffffff;stroke-width:3.24637699" />
      <g
         id="g4499"
         style="fill:#ffffff;stroke-width:3.24637699" />
      <g
         id="g4501"
         style="fill:#ffffff;stroke-width:3.24637699" />
      <g
         id="g4503"
         style="fill:#ffffff;stroke-width:3.24637699" />
      <g
         id="g4505"
         style="fill:#ffffff;stroke-width:3.24637699" />
      <g
         id="g4507"
         style="fill:#ffffff;stroke-width:3.24637699" />
      <g
         id="g4509"
         style="fill:#ffffff;stroke-width:3.24637699" />
      <g
         id="g4511"
         style="fill:#ffffff;stroke-width:3.24637699" />
      <g
         id="g4513"
         style="fill:#ffffff;stroke-width:3.24637699" />
      <g
         id="g4515"
         style="fill:#ffffff;stroke-width:3.24637699" />
      <g
         id="g4517"
         style="fill:#ffffff;stroke-width:3.24637699" />
      <g
         id="g4519"
         style="fill:#ffffff;stroke-width:3.24637699" />
    </g>
  </g>
</svg>
